<?xml version="1.0" ?><svg id="outline" viewBox="0 0 340 340" xmlns="http://www.w3.org/2000/svg"><title/><path d="M94.365,91.215A13.4,13.4,0,0,0,80.9,80.369c-6.064,0-12.246,3.258-16.586,8.755-1.139,1.443-2.3,2.862-3.442,4.218a22.985,22.985,0,0,1-11.32,7.293,31.505,31.505,0,0,0-4.939,1.87,7.987,7.987,0,0,0,3.4,15.209h.119c1.622-.023,3.386-.013,5.243.032.384.008.762.013,1.135.013a35.271,35.271,0,0,0,14.926-2.97l13.939,13.462a3.527,3.527,0,0,1,.125,4.884l-.156.184a14.035,14.035,0,0,0-3.213,11.271A15.668,15.668,0,0,0,87.1,154.843,24.416,24.416,0,0,0,97.54,157.87a20.327,20.327,0,0,0,14.454-6.084,19.051,19.051,0,0,0,5.4-13.628c-.1-3.752-1.494-9.378-7.566-14.9L89.179,104.886A13.4,13.4,0,0,0,94.365,91.215ZM53.536,110.824c-1.285-.03-4.923-.041-5.5-.034a.946.946,0,0,1-1.051-.808.991.991,0,0,1,.6-1.227,24.794,24.794,0,0,1,3.855-1.461,29.883,29.883,0,0,0,14.716-9.486c1.194-1.413,2.4-2.892,3.586-4.394,3.075-3.895,7.305-6.2,11.309-6.119a6.457,6.457,0,0,1,6.53,5.314,6.545,6.545,0,0,1-3.958,7.559h0a22.139,22.139,0,0,1-2.314.875,47.28,47.28,0,0,0-12.18,6.009C66.443,108.877,61.54,111.01,53.536,110.824Zm56.936,27.524a12.192,12.192,0,0,1-3.409,8.578c-4.2,4.255-11.755,4.739-16.267,2.066a7.789,7.789,0,0,1-3.829-5.485,7.2,7.2,0,0,1,1.7-5.761l.1-.122a10.5,10.5,0,0,0-.585-14.353L75.622,111.14a39.429,39.429,0,0,1,6.665-3.118L105.2,128.4C108.6,131.5,110.376,134.846,110.472,138.348Z"/><path d="M28.248,324.282c.349.892.738,1.777,1.157,2.633a16.6,16.6,0,0,0,14.883,9.336,16.418,16.418,0,0,0,4.517-.634c16.224-4.637,31.171-15.634,40.853-24.042a16.69,16.69,0,0,0,3.494-20.893A9.542,9.542,0,0,0,84.5,285.9c-4.451-10.625-11.5-31.146-10.754-52.982a27.369,27.369,0,0,1,3.967-7.047A16.133,16.133,0,0,1,92.518,219.9a16.4,16.4,0,0,1,13.014,9.7s7.144,15.128,22.817,15.027a38.282,38.282,0,0,0,10.359-1.551,3.462,3.462,0,0,0,0-6.653,19.109,19.109,0,0,1-12.435-15.814,21.091,21.091,0,0,0-.362-2.12c1.975-3.9,5.328-7.49,10.007-10.682,1-.682,2.1-1.312,3.151-1.891,4.057-2.243,23.763-14.936,13.29-44.483a18.5,18.5,0,0,1-.093-12.3,17.042,17.042,0,0,1,1.228-2.688L172.332,135.4l65.493-37.177a25.612,25.612,0,0,0,9.106-35.795L246.667,62l30.878-15.038a3.461,3.461,0,0,0-3.031-6.224L240.185,57.459,205.342,74.428A18.506,18.506,0,0,1,186.715,73a25.941,25.941,0,0,0-3.2-1.888L303.761,11.007a3.11,3.11,0,0,1,4.211,1.469L318.69,35.487a3.089,3.089,0,0,1-1.419,4.091L258,68.7a3.462,3.462,0,1,0,3.053,6.215L320.34,45.785a9.981,9.981,0,0,0,4.627-13.221L314.248,9.553a10.032,10.032,0,0,0-13.582-4.739L173.3,68.481a25.359,25.359,0,0,0-13.314,3.144l-14.909,8.2c-.181-.032-9.613-1.906-19.064,8.385a17.178,17.178,0,0,1-6.356,4.513c-.651.314-1.351.653-2.113,1.038-5.278,2.671-10.3,5.924-10.506,6.061a3.462,3.462,0,0,0-1.146,4.57c6.629,12.053,16.058,15.689,24.352,15.689A30.219,30.219,0,0,0,144,116.738a33.286,33.286,0,0,1,6.746-2.1,8.842,8.842,0,0,1-4.033,10.625L128.074,135.7a3.461,3.461,0,1,0,3.381,6.041l18.638-10.434a15.74,15.74,0,0,0,7.549-17.731,7.638,7.638,0,0,0,4.983-6.261,8.079,8.079,0,0,0,.046-1.581,12.71,12.71,0,0,1,6.19,23.675L109.011,164.5a42.418,42.418,0,0,1-10.283,4.416c-7.732,2.1-14.584,1.556-20.435-1.6-.034-.022-.071-.039-.105-.06a25.084,25.084,0,0,1-3.6-2.388,22.433,22.433,0,0,1-8.342-15.008,23.408,23.408,0,0,1,.161-6.593,24.606,24.606,0,0,1,7.748-14.009,3.461,3.461,0,0,0-4.669-5.111,32.125,32.125,0,0,0-7.8,10.922C48.753,145.872,31.79,167.007,22.2,194.672,9.239,232.038,11.807,272.307,29.8,314.385A9.956,9.956,0,0,0,28.248,324.282Zm58.9-30.145a9.754,9.754,0,0,1-2.034,12.211C75.965,314.3,61.906,324.672,46.9,328.96a9.634,9.634,0,0,1-11.279-5.09c-.335-.685-.647-1.395-.928-2.113a3.159,3.159,0,0,1,1.533-3.882l47.4-24.763a2.64,2.64,0,0,1,3.521,1.025ZM127.7,237.7c-10.3,0-15.839-10.893-15.839-10.893A23.265,23.265,0,0,0,93.4,213.035a23.028,23.028,0,0,0-17.892,5.21,67.86,67.86,0,0,1,10.52-24.624c2.892,5.856,8.979,8.18,12.633,8.582,18.453,2.509,20.647,18.531,20.741,19.292A26.347,26.347,0,0,0,127.7,237.7Zm-.6-75.781c4.575,3.336,9.093,8.566,7.329,15.628a15.133,15.133,0,0,1-5.7,8.3l-4.161,3.124a34.86,34.86,0,0,0-9.283,9.918c-.415.683-.776,1.355-1.111,2.022a32.454,32.454,0,0,0-14.707-5.587c-.8-.1-7.688-1.151-8.1-8.424a78.013,78.013,0,0,1,17.753-14.464,16.854,16.854,0,0,0,2.819,11.411c.551.816,1.154,1.656,1.79,2.493a3.461,3.461,0,1,0,5.514-4.186c-.56-.737-1.087-1.472-1.569-2.185a10.175,10.175,0,0,1,3.317-14.472h0Zm18.73,1.831c8.39,23.675-5.622,33.627-10.117,36.113-1.193.661-2.466,1.387-3.7,2.229a40.426,40.426,0,0,0-9.208,8.44,30.289,30.289,0,0,0-3.248-4.667,18.364,18.364,0,0,1,1.646-3.381,28.248,28.248,0,0,1,7.521-7.972l4.161-3.123a22.076,22.076,0,0,0,8.261-12.164c1.906-7.629-.881-15.111-7.664-21.048l11.1-6.509A25.77,25.77,0,0,0,145.833,163.747Zm-4.732-53.3c-.08.035-.169.079-.246.119a25.689,25.689,0,0,1-10.8,2.532h-.007c-6.666,0-12.162-3.109-16.376-9.248,1.864-1.123,4.419-2.6,7-3.909.721-.365,1.382-.685,2-.983,3.143-1.518,5.626-2.718,8.633-6.28,3.6-4.268,7.855-6.313,12.607-6.027a6.318,6.318,0,0,1,3.6,2.011,5.1,5.1,0,0,1,.743,3.9A7.268,7.268,0,0,1,144.15,97a20.6,20.6,0,0,1-5.471-.471,3.463,3.463,0,0,0-1.859,6.671,25.179,25.179,0,0,0,6.412.74c.957,0,1.638-.039,1.887-.056h0a31.033,31.033,0,0,1,10.011,1.538.833.833,0,0,1,.628,1,.711.711,0,0,1-.761.708c-.878.052-1.75.141-2.617.248-.049,0-.1.011-.148.018A40.368,40.368,0,0,0,141.1,110.449Zm17.193-11.192a8.048,8.048,0,0,0-.991-.409,36.933,36.933,0,0,0-3.889-1.048c3.712-4.209,1.716-11.173-1.029-14.089l10.941-6.02a18.38,18.38,0,0,1,19.445,1,25.437,25.437,0,0,0,25.6,1.96l32.036-15.6s9.776,16.423-6,27.151l-52.726,29.93a19.571,19.571,0,0,0-23.386-22.874ZM28.738,196.94a137.162,137.162,0,0,1,30.44-50.012c-.383,14.191,6.433,20.033,11.974,24.022-7.354,9.016-26.434,36.822-23.347,79.606a3.462,3.462,0,0,0,3.449,3.213c.084,0,.168,0,.253-.009a3.462,3.462,0,0,0,3.2-3.7c-2.995-41.5,16.67-68.511,22.535-75.573a31.474,31.474,0,0,0,12.715,2.6c.436,0,.88-.01,1.328-.027C52.111,212.8,69.35,267.518,77.98,288.252l-12.222,6.384c-1.532-3.677-2.922-7.364-4.14-11a3.462,3.462,0,1,0-6.564,2.2c1.332,3.973,2.863,8,4.55,12.014L35.621,310.38C18.818,270.4,16.494,232.248,28.738,196.94Z"/><path d="M51.216,272.451a3.462,3.462,0,0,0,6.736-1.6q-.342-1.435-.648-2.855a3.462,3.462,0,0,0-6.768,1.46Q50.858,270.942,51.216,272.451Z"/><path d="M290.831,40.108a26.407,26.407,0,0,0,3.546-1.341,3.461,3.461,0,0,0-3.031-6.224l-2.033.99a3.463,3.463,0,0,0,1.518,6.575Z"/><circle cx="97.996" cy="141.4" r="3.462"/></svg>