<?xml version="1.0" ?><svg id="outline" viewBox="0 0 340 340" xmlns="http://www.w3.org/2000/svg"><title/><path d="M302.719,129.719a8.78,8.78,0,0,0,3.756-.84l.141-.068a8.83,8.83,0,0,0,4.913-7.236,9.044,9.044,0,0,0-3.708-8.156c-8.012-5.833-29.553-20.392-56.438-29.566l-.023,0-.023-.01c-2.252-.734-4.557-1.418-6.9-2.058,3.027-25.942-7.3-43.846-16.661-54.387A37.721,37.721,0,0,0,202.506,14.77c-14.081-1.14-31.242-.931-32.506-.911-1.265-.021-18.425-.229-32.506.911A37.721,37.721,0,0,0,112.22,27.393c-9.339,10.521-19.684,28.43-16.658,54.386-2.34.641-4.646,1.325-6.9,2.059a.229.229,0,0,1-.023.01l-.023,0c-26.885,9.174-48.426,23.733-56.439,29.566a9.045,9.045,0,0,0-3.707,8.156,8.821,8.821,0,0,0,4.895,7.227l.185.089a8.7,8.7,0,0,0,3.723.83,9.078,9.078,0,0,0,5.211-1.655,121.373,121.373,0,0,1,21.384-11.281c-.991,1.926-1.965,3.927-2.907,6.011-10.047,22.232-18.272,57.894-.405,101.531.01.026.025.049.036.074s.009.032.016.047a88.92,88.92,0,0,0,5.712,10.535,3.462,3.462,0,0,0,5.857-3.692,83.565,83.565,0,0,1-4.369-7.827c5.778-7.05,31.769-35.722,77.854-43.675v10.763a3.462,3.462,0,0,0,6.923,0V178.778a145.066,145.066,0,0,1,34.828.008v11.766a3.462,3.462,0,0,0,6.923,0V179.8a134.615,134.615,0,0,1,53.234,21.528,120.7,120.7,0,0,1,24.621,22.134,83.962,83.962,0,0,1-4.37,7.829,3.462,3.462,0,1,0,5.857,3.692,88.92,88.92,0,0,0,5.712-10.535c.007-.015.009-.031.016-.047s.026-.048.036-.074c17.867-43.637,9.641-79.3-.4-101.531-.942-2.084-1.916-4.085-2.907-6.011a121.4,121.4,0,0,1,21.384,11.281A9.063,9.063,0,0,0,302.719,129.719ZM169.95,20.783h.1c.117,0,8.017-.11,17.412.153a49.61,49.61,0,0,1,8.114,13.528,3.461,3.461,0,0,0,6.392-2.658A61.858,61.858,0,0,0,196.4,21.3c1.881.1,3.745.227,5.546.372A30.835,30.835,0,0,1,222.6,31.989c8.3,9.347,17.443,25.16,15.061,48.077a270.232,270.232,0,0,0-30.712-5.122A101.581,101.581,0,0,0,207.714,60a3.462,3.462,0,1,0-6.921.184,94.666,94.666,0,0,1-.731,14.052c-16.526-1.534-29.041-1.568-30.057-1.568H170c-1.02,0-13.541.035-30.073,1.57-4-32.308,9.026-49.319,12.6-53.3C161.922,20.674,169.833,20.782,169.95,20.783ZM117.4,31.989A30.835,30.835,0,0,1,138.053,21.67c1.791-.145,3.643-.267,5.513-.37-5.751,8.619-13.9,26.2-10.532,53.646a269.972,269.972,0,0,0-30.7,5.121C99.949,57.136,109.114,41.321,117.4,31.989ZM69.267,107.135C56.1,112.182,45.755,117.318,38.51,122.4a2.031,2.031,0,0,1-2.066.2,1.928,1.928,0,0,1-1.076-1.617,2.173,2.173,0,0,1,.885-1.966A222.058,222.058,0,0,1,77.464,95.583a130.973,130.973,0,0,0-8.091,11.523C69.338,107.118,69.3,107.121,69.267,107.135Zm25.8,84.258a125,125,0,0,1-3.044-13.3,3.462,3.462,0,1,0-6.825,1.165,132.91,132.91,0,0,0,3.815,16.024c-.251.171-.508.343-.754.512A131.01,131.01,0,0,0,64.85,216.248c-11.39-31.187-10.624-61.555,2.3-90.339A120.468,120.468,0,0,1,91.54,90.185a171.757,171.757,0,0,1,18.026-4.594A117.576,117.576,0,0,0,83.5,156.156a3.462,3.462,0,0,0,3.375,3.546h.088a3.462,3.462,0,0,0,3.459-3.375c1.024-41.3,25.626-68.1,30.174-72.7A366.121,366.121,0,0,1,170,79.592a365.524,365.524,0,0,1,49.409,4.033,108.589,108.589,0,0,1,20.173,29.936c11.32,24.611,13.108,50.774,5.35,77.83A143.483,143.483,0,0,0,170,170.81,143.472,143.472,0,0,0,95.066,191.393ZM275.15,216.248a131.01,131.01,0,0,0-23.408-20.455c-.243-.167-.5-.337-.745-.5,11.083-36.7,3.34-66.34-5.254-84.9A120.615,120.615,0,0,0,230.4,85.582a172.03,172.03,0,0,1,18.063,4.6,120.487,120.487,0,0,1,24.387,35.724C285.773,154.693,286.54,185.061,275.15,216.248ZM262.536,95.583a222.058,222.058,0,0,1,41.211,23.434,2.175,2.175,0,0,1,.885,1.966,1.964,1.964,0,0,1-1.142,1.649,2.014,2.014,0,0,1-2-.234c-7.193-5.043-17.448-10.143-30.483-15.159a3.589,3.589,0,0,0-.358-.1A131.315,131.315,0,0,0,262.536,95.583Z"/><path d="M178.357,303.585a3.462,3.462,0,0,0,3.461-3.462V280.4c14.45,4.517,38.5,14.093,58.771,32.088a3.457,3.457,0,0,0,2.3.873c.09,0,.179,0,.269-.01a3.463,3.463,0,0,0,2.4-1.25,96.525,96.525,0,0,0,15.712-27.029c5.837-12.4,7.818-21.137,8.134-22.648a36.88,36.88,0,0,0,1.644-6.564,14.222,14.222,0,0,0-3.434-11.574c-28.853-32.706-68.515-44.455-86.16-48.239a11.8,11.8,0,0,0-22.908,0c-17.647,3.785-57.308,15.535-86.16,48.239a14.222,14.222,0,0,0-3.434,11.574,36.88,36.88,0,0,0,1.644,6.564c.315,1.511,2.3,10.252,8.134,22.648A96.535,96.535,0,0,0,94.442,312.1a3.463,3.463,0,0,0,2.4,1.25c.09.007.179.01.269.01a3.459,3.459,0,0,0,2.3-.873c20.221-17.947,44.145-27.52,58.771-32.09v19.724a3.462,3.462,0,1,0,6.923,0V198.908a4.9,4.9,0,0,1,9.79,0V300.123A3.462,3.462,0,0,0,178.357,303.585ZM82.921,277.5a105.738,105.738,0,0,1-5.185-14.958c1.071-1.125,2.867-2.94,5.349-5.239a95.225,95.225,0,0,0,4.778,15.443C85.866,274.561,84.228,276.164,82.921,277.5Zm10.5-9.558a81.825,81.825,0,0,1-4.278-15.964c3.107-2.6,6.749-5.463,10.911-8.428a97.094,97.094,0,0,0,3.9,16.469C99.97,262.77,96.447,265.455,93.422,267.939Zm16.531-11.874a94.258,94.258,0,0,1-3.493-16.87c1.756-1.14,3.568-2.282,5.463-3.417a144.138,144.138,0,0,0,2.339,17.663Q112.035,254.752,109.953,256.065Zm10.69-6.19a121.35,121.35,0,0,1-1.954-17.942c3.236-1.746,6.648-3.44,10.207-5.059A79.984,79.984,0,0,0,130.8,244.9Q125.446,247.31,120.643,249.875Zm16.637-7.754a74.24,74.24,0,0,1-1.382-18.237q2.625-1.048,5.353-2.022a106.617,106.617,0,0,0,.782,18.429Q139.612,241.185,137.28,242.121Zm11.451-4.141a90.276,90.276,0,0,1-.353-18.481q4.769-1.448,9.8-2.611V235.2Q153.307,236.492,148.731,237.98ZM77.578,248.867c26.571-30.118,62.913-41.63,80.6-45.648v6.572c-42.676,9.354-71.783,34.4-82.411,44.843A7.318,7.318,0,0,1,77.578,248.867Zm20,56.057A87.8,87.8,0,0,1,85.932,284.4c5.85-6.285,30.486-30.5,72.25-42.037v30.8C143.843,277.452,119.111,286.838,97.58,304.924Zm159.5-27.426c-1.307-1.334-2.945-2.936-4.943-4.755a95.058,95.058,0,0,0,4.778-15.443c2.483,2.3,4.279,4.115,5.351,5.239A106.05,106.05,0,0,1,257.079,277.5Zm-10.5-9.557c-3.026-2.484-6.549-5.169-10.537-7.924a97.06,97.06,0,0,0,3.9-16.47c4.162,2.966,7.805,5.828,10.912,8.429A81.663,81.663,0,0,1,246.578,267.941Zm-16.532-11.875c-1.392-.876-2.82-1.752-4.307-2.627a144.116,144.116,0,0,0,2.337-17.662c1.9,1.135,3.707,2.277,5.464,3.418A94.327,94.327,0,0,1,230.046,256.066Zm-10.689-6.193q-4.8-2.553-10.158-4.976a80.91,80.91,0,0,0,1.9-18.026c3.561,1.619,6.975,3.314,10.212,5.06A121.119,121.119,0,0,1,219.357,249.873ZM204.1,223.885a75.26,75.26,0,0,1-1.388,18.239c-1.549-.624-3.135-1.232-4.746-1.827a105.983,105.983,0,0,0,.784-18.434Q201.476,222.837,204.1,223.885ZM191.623,219.5a91.536,91.536,0,0,1-.356,18.475q-4.575-1.483-9.449-2.777V216.89Q186.849,218.05,191.623,219.5Zm50.8,85.423c-21.606-18.146-46.482-27.535-60.6-31.765v-30.79c41.763,11.535,66.4,35.75,72.25,42.031A87.8,87.8,0,0,1,242.42,304.924Zm20-56.057a7.322,7.322,0,0,1,1.807,5.767c-10.629-10.446-39.735-35.488-82.411-44.843v-6.572C199.507,207.236,235.85,218.747,262.422,248.867Z"/><path d="M328.261,322.246l-5.182-.02a14.2,14.2,0,0,1-10.052-4.044l-9.367-9.43a3.563,3.563,0,0,0-4.912,0l-9.361,9.427a14.521,14.521,0,0,1-20.109,0l-9.361-9.427a3.561,3.561,0,0,0-4.912,0l-9.361,9.427a14.52,14.52,0,0,1-20.108,0l-9.361-9.427a3.562,3.562,0,0,0-4.913,0l-9.358,9.424a14.519,14.519,0,0,1-20.109,0l-9.357-9.424a3.563,3.563,0,0,0-4.914,0l-9.354,9.423a14.518,14.518,0,0,1-20.11,0l-9.357-9.424a3.562,3.562,0,0,0-4.913,0l-9.354,9.422a14.517,14.517,0,0,1-20.109,0l-9.352-9.421a3.461,3.461,0,0,0-4.913,0l-9.357,9.424a14.52,14.52,0,0,1-20.11,0l-9.357-9.424a3.561,3.561,0,0,0-4.912,0l-9.356,9.424a14.207,14.207,0,0,1-10.055,4.045H11.751a3.462,3.462,0,0,0,0,6.924h5.164a21.163,21.163,0,0,0,14.967-6.091l6.9-6.95,6.9,6.95a21.437,21.437,0,0,0,29.936,0l6.9-6.95,6.894,6.947a21.17,21.17,0,0,0,14.969,6.092h0a21.165,21.165,0,0,0,14.968-6.091l6.9-6.948,6.9,6.95a21.435,21.435,0,0,0,29.936,0l6.9-6.949,6.9,6.95a21.435,21.435,0,0,0,29.935,0l6.9-6.951,6.905,6.954a21.166,21.166,0,0,0,14.966,6.09h0a21.17,21.17,0,0,0,14.967-6.09l6.9-6.954,6.9,6.954a21.161,21.161,0,0,0,14.965,6.09h0a21.168,21.168,0,0,0,14.967-6.09L301.2,316.1l6.91,6.958a21.164,21.164,0,0,0,14.953,6.088l5.169.019h.013a3.462,3.462,0,0,0,.012-6.923Z"/><path d="M211.81,109.2c-.853.53-2.651.5-4.828-.067a3.553,3.553,0,0,0-4.093,1.678,3.467,3.467,0,0,0,2.156,4.971,19.058,19.058,0,0,0,4.943.725,10.189,10.189,0,0,0,5.477-1.427,8.991,8.991,0,0,0,4.018-6.182,20.993,20.993,0,0,0-2.114-13.64,12.627,12.627,0,0,0-15.915-6.214,12.41,12.41,0,0,0-6.622,6.773,5.445,5.445,0,0,1-2.333,2.545c-.784.441-1.708.966-2.754,1.568-.03-.029-.058-.059-.089-.088a30.24,30.24,0,0,0-42.621,1.093c-1.539-.9-3.05-1.77-4.477-2.573a5.43,5.43,0,0,1-2.332-2.544,12.415,12.415,0,0,0-6.622-6.774,12.635,12.635,0,0,0-15.918,6.215,21,21,0,0,0-2.114,13.639,8.949,8.949,0,0,0,4.191,6.285c2.838,1.672,6.66,1.763,11.36.272a5.73,5.73,0,0,1,4.6.442c1,.579,2.01,1.183,3.015,1.782a29.394,29.394,0,0,0-.285,3,30.157,30.157,0,0,0,7.429,21.264v3.436c-3.371,2.77-6.014,5.017-7.687,6.459a13.978,13.978,0,0,0-3.582,4.594,5.773,5.773,0,0,1-4.5,3.637,6.73,6.73,0,0,1-5.654-1.757,7.14,7.14,0,0,1-2.308-5.844,6.037,6.037,0,0,1,.146-.8,4.068,4.068,0,0,1,4.3-3.133c3.9.343,10.658.093,13.4-5.145a3.384,3.384,0,0,0-5.272-4.158q-.746.7-1.479,1.4a7.542,7.542,0,0,1-7.067,1.826l-.148-.038a8.27,8.27,0,0,0-4.511.081,8.386,8.386,0,0,0-5.739,6.1,22.287,22.287,0,0,0-.527,3.313,14.022,14.022,0,0,0,4.512,11.482,13.569,13.569,0,0,0,11.452,3.508,12.636,12.636,0,0,0,9.656-7.515,7.14,7.14,0,0,1,1.842-2.306c1.069-.921,2.546-2.182,4.354-3.7a11.329,11.329,0,0,0,10.14,6.311h21.217a11.332,11.332,0,0,0,9.974-5.966c1.645,1.38,2.983,2.522,3.945,3.351a7.145,7.145,0,0,1,1.841,2.306,12.641,12.641,0,0,0,9.656,7.515,13.567,13.567,0,0,0,11.451-3.508,14.024,14.024,0,0,0,4.512-11.482,22.018,22.018,0,0,0-.4-2.738,8.832,8.832,0,0,0-3.637-5.619,8.36,8.36,0,0,0-6.72-1.147s-4.249,1.151-7.236-1.784c-1.763-1.731-3.7-3.455-5.691-5.206a30.347,30.347,0,0,0-1.877-30.089c.6-.344,1.157-.658,1.652-.937a12.4,12.4,0,0,0,5.292-5.833,5.494,5.494,0,0,1,2.925-3.125A5.688,5.688,0,0,1,211.2,98.4a13.958,13.958,0,0,1,1.493,9.166C212.445,108.809,211.966,109.106,211.81,109.2Zm-72.633.7a12.529,12.529,0,0,0-10.059-1.07c-3.1,1-5.05.858-5.84.392-.182-.107-.663-.391-.913-1.657a13.966,13.966,0,0,1,1.493-9.165,5.692,5.692,0,0,1,7.086-2.961,5.5,5.5,0,0,1,2.925,3.124,12.392,12.392,0,0,0,5.293,5.835c1.16.653,2.376,1.352,3.616,2.071a30.513,30.513,0,0,0-2.151,4.288C140.143,110.474,139.661,110.18,139.177,109.9Zm43.651,38.476a4.408,4.408,0,0,1-4.4,4.4h-1.177v-6.741a3.462,3.462,0,0,0-6.923,0v6.741h-4.671v-6.741a3.462,3.462,0,0,0-6.924,0v6.741h-1.522a4.407,4.407,0,0,1-4.4-4.4V140.6a3.461,3.461,0,0,0-.958-2.39,23.313,23.313,0,0,1-6.478-17.237,23.682,23.682,0,0,1,21.963-22.409q.759-.045,1.514-.046a23.479,23.479,0,0,1,15.2,41.369,3.465,3.465,0,0,0-1.217,2.636Zm14.2-2.745a14.393,14.393,0,0,0,12.017,3.834,2.893,2.893,0,0,1,2.925,1.326c.919,1.572,1.494,4.2-1.372,7.522a6.135,6.135,0,0,1-5.653,1.758,5.777,5.777,0,0,1-4.5-3.639,13.99,13.99,0,0,0-3.58-4.592c-1.527-1.315-3.979-3.4-7.112-5.985v-1.787a30.562,30.562,0,0,0,2.566-2.767C193.96,142.76,195.54,144.21,197.024,145.632Z"/><path d="M199.474,47.64a3.462,3.462,0,1,0,6.8-1.285l-.157-.809a3.462,3.462,0,0,0-6.79,1.352Z"/><path d="M163.3,119.763l-2.321-1.321a3.462,3.462,0,1,0-3.423,6.018,27.458,27.458,0,0,0,4.029,1.774,3.462,3.462,0,0,0,1.715-6.471Z"/><path d="M176.685,118.442l-2.32,1.321a3.29,3.29,0,0,0,2.187,6.153c3.572-.871,5.955-3.8,4.854-6.178A3.371,3.371,0,0,0,176.685,118.442Z"/><circle cx="102.64" cy="286.219" r="3.462"/><circle cx="125.955" cy="270.253" r="3.462"/><circle cx="237.36" cy="286.219" r="3.462"/><circle cx="214.045" cy="270.253" r="3.462"/></svg>