<?xml version="1.0" ?><svg id="outline" viewBox="0 0 340 340" xmlns="http://www.w3.org/2000/svg"><title/><path d="M26.254,198.071a21.52,21.52,0,0,0,14.821,8.639c11.293,1.313,25.637,2.1,40.627,2.537a16.934,16.934,0,0,1-1.548,7.553,22.04,22.04,0,0,0-2.28,9.655v14.4a10.582,10.582,0,0,0,9.684,10.589c12.851,1.158,27.277,1.627,42.223,1.627,40.79,0,85.436-3.5,112.415-6.028,1.318,3.751,2.442,9.6,1.827,18.21-1.614,22.605-2.52,42.643,2.77,58.955a3.461,3.461,0,0,0,6.1.956c.1-.142,10.4-14.349,20.233-21.64a20.093,20.093,0,0,0,8.079-14.852,70.371,70.371,0,0,0-5.558-32.2,109.038,109.038,0,0,1-5.513-16.005,83.391,83.391,0,0,1,.407-16.322,93.206,93.206,0,0,0,12.9,21.923c14.35,18.778,20.244,39.446,22.385,49.276a72.772,72.772,0,0,1-14.735-8.574,3.462,3.462,0,0,0-4.176,5.523,75.366,75.366,0,0,0,22.472,11.773,3.461,3.461,0,0,0,4.383-3.752c-.155-1.264-4.051-31.262-24.829-58.45-12.488-16.34-14.8-27.673-15-33.224,9.166-.456,17.71-1.082,24.987-1.928a21.52,21.52,0,0,0,14.82-8.639,87.3,87.3,0,0,0,12.187-24.151,11.414,11.414,0,0,0-9.258-14.856c-14.318-2.046-40.766-9.653-57.04-37.612a3.462,3.462,0,0,0-3.635-1.66,10.819,10.819,0,0,1-9.76-18.2,3.463,3.463,0,0,0,.444-4.284C224.445,62.445,192.49,50.025,170,50.025c-8.192,0-24.7,1.733-43.221,13.341a100.554,100.554,0,0,0-16.913,13.379C106.8,48,92.782,34.725,92.14,34.132A3.462,3.462,0,0,0,86.331,36.7a25.31,25.31,0,0,1-2.589,10.038,50.575,50.575,0,0,1-7.075,10.421c-1.395,1.308-.976,3.665.509,4.869a3.643,3.643,0,0,0,4.869-.509c2.123-2.02,6.411-8.388,8.01-11.939A43.45,43.45,0,0,0,91.9,44.786c4.437,6.615,10.7,19.29,11.541,38.821a123.839,123.839,0,0,0-14.529,21.147c-2.218-9.68-6.915-15.1-7.176-15.393a3.461,3.461,0,0,0-4.432-.634l-1.586,1c1.211-28-7.149-46.587-14.71-57.5-8.964-12.939-18.7-18.2-19.107-18.419a3.462,3.462,0,0,0-5.062,2.657A53.179,53.179,0,0,1,34.1,27.187a52.666,52.666,0,0,1-3.309,7.538,71.639,71.639,0,0,0-6.13,53.759,80.022,80.022,0,0,0,6.076,15.522,17.747,17.747,0,0,0-4.646.238c-1.814.658-2.692,2.105-2.577,4.388,5.839,19.234,17.5,30.215,26.247,36.04a3.461,3.461,0,1,0,3.836-5.763,56.915,56.915,0,0,1-21.946-27.85,19.5,19.5,0,0,1,4.934,1.425,3.463,3.463,0,0,0,4.151-5.247C39.766,105.93,17.157,74.791,36.894,38a59.688,59.688,0,0,0,3.746-8.531c.846-2.43,1.531-4.7,2.05-6.783,9.068,7.051,29.92,28.4,25.654,73.269a3.461,3.461,0,0,0,5.289,3.258l4.566-2.87a36.266,36.266,0,0,1,4.932,18.94,3.462,3.462,0,0,0,.1.82,81.38,81.38,0,0,1-7.378,12.269C55.238,117.753,53.788,88.95,54.164,76.721c.395-12.844-3.028-19.647-3.174-19.931a3.462,3.462,0,0,0-6.155,3.17c.027.054,2.744,5.652,2.408,16.548-.41,13.355,1.274,44.522,24.2,57.345A73.613,73.613,0,0,1,55.49,147.4a3.459,3.459,0,0,0-1.61,2.708l-.849,13.277a1.432,1.432,0,0,1-2.488.871L43.1,156.069a3.466,3.466,0,0,0-3.707-.939,85.061,85.061,0,0,1-16.065,3.934,11.414,11.414,0,0,0-9.258,14.856A87.3,87.3,0,0,0,26.254,198.071Zm94.028,11.679c.088.059.167.127.263.18a163.856,163.856,0,0,0,43.4,15.775c-35.246,4.745-68.451,6.466-79.142,6.926v-6.176a12.581,12.581,0,0,1,1.548-6.559c2.768-4.529,2.279-10.469,2.279-10.469C99.322,209.669,110.155,209.754,120.282,209.75Zm65.453,12.631a3.536,3.536,0,0,0-.673-.149,178.933,178.933,0,0,1-49.094-12.558c18.817-.169,32.655-.567,34.032-.608,1.755.052,23.732.684,50.472.684,5.27,0,10.725-.025,16.246-.084C222.346,215.025,204.347,219.176,185.735,222.381ZM88.179,244.547a3.693,3.693,0,0,1-3.381-3.694v-1.284c20.58-.826,126.068-6.171,169.422-30.209,3.885-.1,7.74-.219,11.527-.364-1.43,7.977-3.1,19.623-2.724,28.977C244.157,240.052,148.447,249.976,88.179,244.547ZM274.3,288.216A13.181,13.181,0,0,1,269,297.961c-6.628,4.914-13.2,12.38-17.36,17.5-2.905-13.99-2.057-30.918-.714-49.718a54.183,54.183,0,0,0-1.688-19.381q1.771-.174,3.392-.338A107.317,107.317,0,0,1,258.4,284.8a3.463,3.463,0,0,0,3.345,3.576l.117,0a3.462,3.462,0,0,0,3.458-3.347,114.271,114.271,0,0,0-5.6-39.734c1.767-.188,3.241-.348,4.4-.476a116.872,116.872,0,0,0,5.183,14.432A63.363,63.363,0,0,1,274.3,288.216Zm-253.21-120.2a4.53,4.53,0,0,1,3.217-2.1A91.825,91.825,0,0,0,39.495,162.4l5.925,6.518a8.354,8.354,0,0,0,14.52-5.087l.738-11.535a82.836,82.836,0,0,0,29.788-35.268C116.739,59.845,161.329,56.948,170,56.948c20.2,0,48.826,11.079,69.472,41.976a17.751,17.751,0,0,0,14.5,27.99c.281,0,.565-.008.85-.022,17.812,28.881,45.653,36.851,60.872,39.026a4.53,4.53,0,0,1,3.217,2.1,4.376,4.376,0,0,1,.446,3.733,80.31,80.31,0,0,1-11.2,22.229,14.571,14.571,0,0,1-10.035,5.854c-41.992,4.882-127.164,2.335-128.02,2.309h-.212c-.856.027-86.028,2.574-128.019-2.309a14.573,14.573,0,0,1-10.036-5.854,80.332,80.332,0,0,1-11.2-22.23A4.375,4.375,0,0,1,21.087,168.017Z"/><path d="M197.475,162.2a3.462,3.462,0,0,0-1.235-2.65l-11.032-9.27a3.462,3.462,0,0,0-4.454,0l-9.566,8.038-9.567-8.038a3.46,3.46,0,0,0-4.453,0l-11.033,9.27a3.463,3.463,0,0,0,0,5.3l8.64,7.259-8.64,7.26a3.463,3.463,0,0,0,0,5.3l11.033,9.27a3.46,3.46,0,0,0,4.453,0l9.567-8.038,9.566,8.038a3.463,3.463,0,0,0,4.454,0l11.032-9.27a3.462,3.462,0,0,0,0-5.3l-8.639-7.26,8.639-7.259A3.462,3.462,0,0,0,197.475,162.2Zm-17.482,7.26a3.462,3.462,0,0,0,0,5.3l8.639,7.259-5.651,4.749-9.566-8.039a3.463,3.463,0,0,0-4.454,0l-9.567,8.039-5.651-4.749,8.639-7.259a3.462,3.462,0,0,0,0-5.3l-8.639-7.26,5.651-4.748,9.567,8.038a3.462,3.462,0,0,0,4.454,0l9.566-8.038,5.651,4.748Z"/><path d="M151.391,129.931a11.338,11.338,0,0,0,11.325,11.326h21.218a11.339,11.339,0,0,0,11.326-11.326v-4.308a30.405,30.405,0,0,0-22.847-52.41,30.674,30.674,0,0,0-28.451,29.023,30.151,30.151,0,0,0,7.429,21.262Zm-.512-27.4a23.681,23.681,0,0,1,21.962-22.409q.759-.047,1.513-.046a23.479,23.479,0,0,1,15.2,41.369,3.462,3.462,0,0,0-1.218,2.636v5.85a4.407,4.407,0,0,1-4.4,4.4h-1.177v-6.742a3.462,3.462,0,0,0-6.924,0v6.742h-4.671v-6.742a3.462,3.462,0,0,0-6.924,0v6.742h-1.522a4.408,4.408,0,0,1-4.4-4.4v-7.773a3.461,3.461,0,0,0-.958-2.39A23.313,23.313,0,0,1,150.879,102.531Z"/><path d="M163.066,106.014l2.321,1.32a3.461,3.461,0,1,0,3.423-6.017L166.489,100a3.462,3.462,0,0,0-3.423,6.018Z"/><path d="M181.589,107.787a3.437,3.437,0,0,0,1.708-.453l2.321-1.32A3.462,3.462,0,0,0,182.2,100l-2.321,1.321a3.461,3.461,0,0,0,1.715,6.47Z"/></svg>