<?xml version="1.0" ?><svg id="outline" viewBox="0 0 340 340" xmlns="http://www.w3.org/2000/svg"><title/><path d="M75.751,236.681a54.511,54.511,0,0,0,19.107,28.342c17.437,15.993,34.444,19.956,47.005,19.956,1.861,0,3.625-.087,5.277-.235a59.635,59.635,0,0,0,21.682-6.131,59.628,59.628,0,0,0,27.027,6.424,62.516,62.516,0,0,0,28.5-7.034c17.373,10.112,29.19,27.235,35.154,37.57a28.829,28.829,0,0,0,24.908,14.376h10.22a3.461,3.461,0,0,0,3.175-4.841,200.643,200.643,0,0,0-33.5-50.3,79.41,79.41,0,0,0,16.565-24.425l7.9,3.627a3.462,3.462,0,0,0,4.839-2.47c8.769-44.041-12.171-67.842-13.066-68.834a3.462,3.462,0,0,0-5.98,1.728c-5.008,28.84-25.517,40.665-25.715,40.777a3.461,3.461,0,0,0-.69,5.552l6.479,6.077a48.051,48.051,0,0,1-11.87,19.049,127.629,127.629,0,0,0-24.457-13.12c-10.756-4.364-19.55-7.374-26.207-8.974a556.643,556.643,0,0,1-8.445-72.151c14.317-9.365,35.436-21.054,35.583-21.135,38.995-20.406,40.567-45.772,36.963-67.895-.006-.035-.014-.072-.02-.107l-.006-.032c-2.227-13.276-13.76-28.4-25.776-33.768l-.03-.013-.012-.005c-8.663-3.865-19.4-6.4-23.618-7.317a3.462,3.462,0,0,0-1.464,6.767,149.367,149.367,0,0,1,15.654,4.309,24.975,24.975,0,0,0-8.482,11.787A92.98,92.98,0,0,0,202.585,51a34.565,34.565,0,0,0-6.751-13.822,13.371,13.371,0,0,0,.915-10.188,13.18,13.18,0,0,0-8.15-8.575l-.355-.126A13.169,13.169,0,0,0,177.1,19.445a13.584,13.584,0,0,0-1.611,1.152,12.654,12.654,0,0,0-8.893-4.171,9.6,9.6,0,0,0-6.071,2.116,15.639,15.639,0,0,1-2.28-3.619,14.238,14.238,0,0,0-13.036-8.395H133.688a3.461,3.461,0,0,0-3.453,3.707A41.29,41.29,0,0,0,142,36.891a34.706,34.706,0,0,0-1.214,42.37c.024.036.039.076.064.111a72.022,72.022,0,0,1,13.366,36.841h-13.2a9.665,9.665,0,0,1-6.791-2.777,16.983,16.983,0,1,0,.006,24.295,9.167,9.167,0,0,1,6.364-2.772h14.055q.006,4.668-.079,9.357c-8.521,4.184-19.865,10.571-29.6,18.809a3.459,3.459,0,0,0-.818.7c-8.791,7.606-16.138,16.736-18.66,27.131-7.892,32.516,19.343,50.282,34.441,57.443a31.631,31.631,0,0,1-29.819,12.8,111.243,111.243,0,0,1-11.566-2.062,48.211,48.211,0,0,1-15.53-22.3L89.5,230.76a3.468,3.468,0,0,0-.681-5.548c-.207-.116-20.716-11.941-25.724-40.781a3.462,3.462,0,0,0-5.98-1.728c-.9.992-21.835,24.793-13.066,68.834a3.462,3.462,0,0,0,4.839,2.47l7.891-3.622c3.876,9.442,17.132,34.1,53.848,48.7A189.922,189.922,0,0,1,133.8,309.978c8.793,4.953,21.612,12.907,32.745,22.675a3.5,3.5,0,0,0,2.243.819,3.865,3.865,0,0,0,2.323-.819c11.133-9.768,23.952-17.722,32.745-22.675a189.975,189.975,0,0,1,23.176-10.891q1.137-.452,2.241-.916a3.462,3.462,0,1,0-2.683-6.383q-1.043.438-2.115.865a196.823,196.823,0,0,0-24.017,11.293,212.523,212.523,0,0,0-31.63,21.543A212.526,212.526,0,0,0,137.2,303.946a196.735,196.735,0,0,0-24.016-11.293c-41.769-16.608-51.007-47.611-51.093-47.913a3.461,3.461,0,0,0-4.779-2.218l-7.246,3.326c-4.041-25.785,3.064-43.572,8.014-52.305a66.562,66.562,0,0,0,23.515,35.138l-4.87,4.568A3.46,3.46,0,0,0,75.751,236.681Zm96.54,35.935V93.4a34.374,34.374,0,0,0,10.236-2.654,79.778,79.778,0,0,0-6.187,28.435,548.063,548.063,0,0,0,9.34,117.983c.266,2.233,3.766,27.107,28.384,36q1.143.413,2.26.871A53.349,53.349,0,0,1,172.291,272.616Zm12.593-144.565c-.049,0-1.82-.015-1.82-.015.025-1.636.062-3.268.1-4.9H193.71C190.535,124.91,187.564,126.563,184.884,128.051Zm31.533,138.606a36.174,36.174,0,0,1-5.69-2.638,18.474,18.474,0,0,1,11.416-12.009,115.272,115.272,0,0,1,32.4,22.613c2.217,2.212,4.337,4.468,6.361,6.739a23.315,23.315,0,0,0-12.222,7.613C240.157,279.744,229.465,271.371,216.417,266.657Zm68,56.369A21.892,21.892,0,0,1,265.5,312.114a135.588,135.588,0,0,0-12.225-17.84c2.018-2.55,6.381-6.743,13.065-6.5a205.4,205.4,0,0,1,22.788,35.248Zm-22.507-86.345a3.463,3.463,0,0,0-.972-3.432l-4.87-4.568A66.552,66.552,0,0,0,279.59,193.5c4.963,8.689,12.078,26.426,8.005,52.345l-7.247-3.326a3.461,3.461,0,0,0-4.779,2.218c-.035.124-3.464,12.033-16.058,25.064l-.08-.082a118.9,118.9,0,0,0-11.019-9.7A54.433,54.433,0,0,0,261.907,236.681ZM214.017,248.5a24.745,24.745,0,0,0-9.143,11.321,39.355,39.355,0,0,1-11.25-18.482A210.989,210.989,0,0,1,214.017,248.5Zm-31-111.5c4.434-2.451,10.266-5.689,16.813-9.354a21.272,21.272,0,0,1,7.385,11.7c-6.61,3.781-15.875,9.192-23.887,14.275Q183.032,145.281,183.013,137Zm32.951-2.593c-.044.024-.973.538-2.53,1.412a28.171,28.171,0,0,0-7.239-11.748q2.375-1.336,4.816-2.716a48.411,48.411,0,0,0,15.465-13.18c3.062,1.674,8.268,5.146,11.248,10.614C232.553,124.183,225.5,129.419,215.964,134.409ZM242.4,113.187a36.654,36.654,0,0,0-12.328-10.929c3.039-6.267,4.348-13.426,3.934-21.562-.011-.223-.046-.449-.065-.673a22.967,22.967,0,0,1,15.8-3.829C251.484,88.539,251.015,101.17,242.4,113.187Zm5.8-44.054a29.96,29.96,0,0,0-15.946,3.8A32.342,32.342,0,0,0,218.82,57,18.461,18.461,0,0,1,228.9,45.682C237.093,49.959,245.021,59.739,248.2,69.133Zm-34.614-7.011c6.823,2.741,13.135,11.585,13.509,18.926.785,15.43-5.409,26.324-19.489,34.282l-1.638.925a3.466,3.466,0,0,0-.422-.042H183.439A72.03,72.03,0,0,1,196.8,79.372c.026-.035.041-.075.065-.111A34.473,34.473,0,0,0,203.5,58.91c0-.155-.009-.309-.011-.464C207.333,59.614,210.72,60.971,213.585,62.122ZM180.654,25.385a6.189,6.189,0,0,1,5.3-.562l.287.1a6.314,6.314,0,0,1,3.895,4.111,6.531,6.531,0,0,1-.94,5.784L175.612,53.729a1.177,1.177,0,0,1-1.367.172c-.595-.27-.047-2.636-.047-2.636l0-.009,3.326-21.242A6.572,6.572,0,0,1,180.654,25.385Zm-19.588,30.67a8,8,0,0,0,7.37,1.667,6.824,6.824,0,0,0,1.353,1.478,8.836,8.836,0,0,0,7.1,1.563,8.275,8.275,0,1,1-15.827-4.708Zm5.746-32.71a4,4,0,0,1,3.091,1.337,3.947,3.947,0,0,1,.944,3.232l-.161,1.029,0,0-3.325,21.24a1.067,1.067,0,0,1-2.1.05,130.064,130.064,0,0,1-2.285-22.928A3.97,3.97,0,0,1,166.812,23.345Zm-21.605-9.894a7.311,7.311,0,0,1,6.709,4.283,22.934,22.934,0,0,0,4.549,6.628,10.7,10.7,0,0,0-.383,2.3,34.66,34.66,0,0,0-9.175,5.351,34.2,34.2,0,0,1-9.332-18.564Zm11.086,20.7a139.836,139.836,0,0,0,1.6,14.216,15.213,15.213,0,1,0,25.54,6.349L191.7,43.205a27.741,27.741,0,0,1-22.868,43.449c-15.3,0-28.406-12.461-27.744-27.744A29.145,29.145,0,0,1,156.293,34.146Zm-26.9,98.637a10.052,10.052,0,0,1-17.06-7.691,10.2,10.2,0,0,1,9.081-9.521,10.055,10.055,0,0,1,7.975,2.815,16.555,16.555,0,0,0,11.632,4.75h13.475c.04,1.632.077,3.264.1,4.9h-14A16.04,16.04,0,0,0,129.389,132.783Zm24.14,37.022a110.628,110.628,0,0,0-10.257,6.512c-.025.018-.048.037-.072.055A33.276,33.276,0,0,0,132.841,165.6a144.735,144.735,0,0,1,21.539-13.441Q154.1,160.954,153.529,169.805ZM112.22,192.593c2.02-8.324,7.833-15.852,15.024-22.337,2.851,1.661,8.17,5.368,10.714,11.059a29,29,0,0,0-6.466,21.182,34.974,34.974,0,0,0-18.679,10.249A35.8,35.8,0,0,1,112.22,192.593Zm3.772,27.08a27.768,27.768,0,0,1,16.972-10.41,27.743,27.743,0,0,0,4.9,8.664,3.461,3.461,0,1,0,5.308-4.444,21.512,21.512,0,0,1-4.732-16.384,21.925,21.925,0,0,1,8.917-15.194c1.582-1.157,3.424-2.379,5.548-3.686a563.062,563.062,0,0,1-7.757,57.808,61.379,61.379,0,0,1-1.842,6.31C135.155,238.519,122.8,231.191,115.992,219.673ZM114.327,268.4c31.454-.849,37.527-30.569,37.627-31.1a548.048,548.048,0,0,0,9.363-118.115,79.777,79.777,0,0,0-6.186-28.435A34.374,34.374,0,0,0,165.367,93.4V272.6c-6.167,3.106-29.136,12.461-55.235-4.425A30.714,30.714,0,0,0,114.327,268.4Z"/></svg>