<?xml version="1.0" ?><svg id="outline" viewBox="0 0 340 340" xmlns="http://www.w3.org/2000/svg"><title/><path d="M45.488,131.242a42.157,42.157,0,0,0,12.962,2,8.007,8.007,0,0,0,2.43-15.584A32.187,32.187,0,0,1,45.024,106.1a33.234,33.234,0,0,1-5.991-22.084C40.129,68.639,47,57.88,59.45,52.038A34.162,34.162,0,0,1,91.3,53.424c24.905,14.648,20.048,53.3,20,53.684a3.288,3.288,0,0,0-.029.33c-1.7,43.282,18.666,65.686,29.075,74.247a68,68,0,0,0-3.868,26.75,10.823,10.823,0,0,0-3.879,9.6c2.306,20.141,12.382,29.838,13.82,31.129l15.07,15.781a166.2,166.2,0,0,0,30.426,27.128,105.7,105.7,0,0,0,19.972,14.234,10.471,10.471,0,0,0,1.9,10.023A52.911,52.911,0,0,0,230.067,329.1a10.458,10.458,0,0,0,12.03-1.774,454.065,454.065,0,0,0,33.412-35.954,20.789,20.789,0,0,0,14.4-7.1,83.848,83.848,0,0,0,12.833-18.707,9.39,9.39,0,0,0-.644-9.138A432.658,432.658,0,0,0,330,210.757a10.421,10.421,0,0,0-1.916-12.216,84.63,84.63,0,0,0-11.763-9.687,10.279,10.279,0,0,0-7.988-1.619c-.331.068-.655.155-.975.254l-8.325-7.183c-.062-.054-.126-.105-.192-.154-3.662-2.733-10.774-8.034-16.912-4.2-5-4.315-10.073-8.458-15.118-12.318a12.955,12.955,0,0,0-5.891-9.489c-.046-.031-.093-.061-.14-.089l-12.835-7.7c-8.654-6.428-14.946-10.568-21.3-12.632-.01,0-.018-.009-.028-.012l-.071-.022-.069-.023c-.021-.007-.043-.01-.063-.017-12.842-4.063-22.568-3.474-28.474-2.257a12.364,12.364,0,0,0-8.763,6.336,68.16,68.16,0,0,0-11.345,3.82c-26.983-15.02-32.072-54.418-33-70.8-.72-12.725-5.328-24.578-12.975-33.378a86.083,86.083,0,0,0-24.32-19.245c-21-11.31-46.364-11.148-66.2.428C22.182,29.722,11.426,45.152,9.372,64.406c-3,28.158,6.9,44.818,15.738,53.836A51.392,51.392,0,0,0,45.488,131.242ZM163.452,256.98l-12.132-12.7a2.11,2.11,0,0,1,.148-3.066c7.561-6.478,24.426-21.368,41.359-39.27A563.864,563.864,0,0,1,163.452,256.98Zm73.842,65.359a3.537,3.537,0,0,1-4.067.6,45.953,45.953,0,0,1-14.134-11.053,3.516,3.516,0,0,1,.1-4.654c5.528-5.911,16.361-17.712,29.3-32.916a20.88,20.88,0,0,0,3.827,5.091,79.391,79.391,0,0,0,10.146,8.318,20.691,20.691,0,0,0,4.946,2.512C257.746,301.6,247.635,312.38,237.294,322.339Zm59.189-59.722a77.1,77.1,0,0,1-11.789,17.109,13.871,13.871,0,0,1-10.451,4.765,13.693,13.693,0,0,1-7.837-2.456,72.449,72.449,0,0,1-9.261-7.588,13.779,13.779,0,0,1-1.086-18.62l11.459-14.179s1.733-1.548,3.436-.339.41,3.448.41,3.448l-11.458,14.178a8.855,8.855,0,0,0,.688,11.969,67.545,67.545,0,0,0,8.628,7.067,8.871,8.871,0,0,0,11.745-1.5,73.332,73.332,0,0,0,11.042-15.967,2.4,2.4,0,0,1,3.29-1.183A2.591,2.591,0,0,1,296.483,262.617Zm15.9-68.064a77.665,77.665,0,0,1,10.8,8.883,3.525,3.525,0,0,1,.67,4.128,425.654,425.654,0,0,1-27.406,44.865,9.415,9.415,0,0,0-10.705,5.129,66.529,66.529,0,0,1-10,14.366,1.953,1.953,0,0,1-2.584.356,60.6,60.6,0,0,1-7.742-6.337,1.94,1.94,0,0,1-.134-2.655l11.458-14.178a9.4,9.4,0,0,0,.762-10.7c11.587-15.171,21.671-29.572,29.959-42.818a3.482,3.482,0,0,1,2.264-1.578A3.417,3.417,0,0,1,312.388,194.553ZM294.6,185.628l7.108,6.134c-.035.054-.076.1-.111.159-8.168,13.053-18.119,27.263-29.563,42.25a9.4,9.4,0,0,0-9.9,3.126l-11.459,14.178a20.717,20.717,0,0,0-4.557,14.931c-12.837,15.227-23.881,27.376-30.213,34.2a96,96,0,0,1-17.2-11.789,189.815,189.815,0,0,0,14.379-24.137c22.833-21.282,45.291-49.365,60.188-68,4.5-5.624,8.381-10.481,11.3-13.923C285.916,181.163,287.517,180.362,294.6,185.628Zm-29.428-14.5c3.981,3.114,7.967,6.388,11.911,9.783-2.614,3.173-5.733,7.074-9.226,11.442-11.907,14.892-28.689,35.869-46.513,54.413,4.894-11.611,9.1-23.48,12.65-34.755.034-.031.073-.053.1-.086C249.765,196.132,260.834,181.548,265.175,171.132Zm-5.393-5.392c-2.178,7.44-9.958,18.831-21.41,31.587,5.352-19,8.658-34.835,10.147-42.558l8.618,5.173C259.271,161.4,260.358,163.773,259.782,165.74Zm-66.54,118.807a165.006,165.006,0,0,1-24.895-22.288c7.824-12.624,44.956-74.391,50.731-118.524a4.231,4.231,0,0,1,1.93-3.032,3.946,3.946,0,0,1,3.34-.452l.065.019c5.118,1.642,10.51,5.1,17.815,10.463C239.681,164.3,224.3,240.64,193.242,284.547Zm6.1-146.38a43.56,43.56,0,0,1,14.8-.266,11.133,11.133,0,0,0-1.924,4.936c-1.59,12.146-5.769,25.883-11.089,39.579-.058.058-.122.1-.176.169-20.346,23.854-44.531,45.268-53.985,53.366a8.906,8.906,0,0,0-1.168,1.219,50.555,50.555,0,0,1-6.324-19.924,4.025,4.025,0,0,1,1.8-3.785c11-7.188,37.886-27.015,49.922-55.8a3.462,3.462,0,1,0-6.388-2.67c-9.555,22.855-29.315,39.843-41.513,48.676a77.282,77.282,0,0,1,17.978-42.376,61.11,61.11,0,0,1,31.01-17.184,2.977,2.977,0,0,0,2.457-2.031A5.736,5.736,0,0,1,199.338,138.167ZM16.257,65.14c1.832-17.182,11.179-30.467,28.572-40.615,17.766-10.368,40.537-10.487,59.427-.312A79.172,79.172,0,0,1,126.633,41.9c6.646,7.647,10.655,18.027,11.288,29.227.948,16.762,6.072,56.076,32.7,74.1a98.819,98.819,0,0,0-15.23,12.187,67.848,67.848,0,0,0-12.239,17.566c-9.816-8.679-26.411-29.1-24.969-67.118.434-3.419,4.891-43.786-23.37-60.409a41.082,41.082,0,0,0-38.3-1.684c-10.238,4.8-22.78,15.251-24.383,37.754A40.154,40.154,0,0,0,39.444,110.2a39,39,0,0,0,19.2,14.006.994.994,0,0,1,.721,1.219.94.94,0,0,1-1.013.891,35.659,35.659,0,0,1-10.884-1.709C45.98,124.171,11.111,113.382,16.257,65.14Z"/></svg>