<?xml version="1.0" ?><svg id="outline" viewBox="0 0 340 340" xmlns="http://www.w3.org/2000/svg"><title/><path d="M329.545,100.015a24.352,24.352,0,0,0-12.767-18.068l-12.3-6.437-63.073-33L229.236,36.15c-12.4-6.486-27.964-2.491-35.436,9.094a40.033,40.033,0,0,0-2.589,4.648,24.2,24.2,0,0,0,3.328,26.2c.27.31.55.621.84.926a9.108,9.108,0,0,0,6.612,2.87h.076a9.466,9.466,0,0,0,6.744-2.842,9.361,9.361,0,0,0,1.276-11.437c-1.535-2.506-2.992-6.049-1.225-8.7a8.121,8.121,0,0,1,7.384-3.483c3.657.315,6.909,3.083,9.228,7.823-3.786,7.832-5.5,15.244-5.1,22.159a32.3,32.3,0,0,0,10.714,22.1,8.1,8.1,0,0,1,2.023,9.206l-.556,1.261H171.794a3.462,3.462,0,0,0,0,6.924H229.5l-4.511,10.231a10.746,10.746,0,0,0-4.19-.8l-14.474-.269h-.066a3.461,3.461,0,0,0-.064,6.922l14.542.272c.051,0,.1,0,.15,0a3.637,3.637,0,0,1,2.624,1.03,3.6,3.6,0,0,1,1.094,2.6v4.342a3.461,3.461,0,0,0,3.212,3.453l20.712,1.5a3.64,3.64,0,0,1,3.366,3.618v2.429H241.821a3.462,3.462,0,1,0,0,6.924h25.924a3.633,3.633,0,0,1,3.629,3.629,3.462,3.462,0,0,0,6.923,0,10.565,10.565,0,0,0-10.552-10.553h-8.924v-2.429a10.59,10.59,0,0,0-9.791-10.524L231.531,144v-1.122a10.484,10.484,0,0,0-1.158-4.8l9.074-20.578a15.015,15.015,0,0,0-3.672-17.095c-7.5-6.894-16.571-22.5,4.957-50.425l57.52,30.089c-4.313,8.391-13.073,23.859-19.416,28.616-4.28,3.21-10.607,3.055-15.159,2.36a14.876,14.876,0,0,0-15.557,8.005l-8.4,16.612a3.462,3.462,0,1,0,6.179,3.124l8.4-16.612a7.967,7.967,0,0,1,8.331-4.285c8.411,1.285,15.45.017,20.359-3.665,4.446-3.335,9.364-10.209,13.51-16.923a21.908,21.908,0,0,1,6.983,1.4c3.028,1.331,5.172,3.458,5.463,5.419.064.435.261,1.76-1.679,3.421a13.946,13.946,0,0,1-4.986,2.681,8.847,8.847,0,0,0,2.576,17.3c.264,0,.529-.013.793-.037,6.967-.644,12.718-3.116,17.1-7.345A23.073,23.073,0,0,0,329.545,100.015ZM216.839,46.525A15.159,15.159,0,0,0,203.1,53.066c-2.962,4.442-2.578,10.179,1.08,16.155a2.443,2.443,0,0,1-.326,2.987,2.66,2.66,0,0,1-1.808.754,2.266,2.266,0,0,1-1.639-.7c-.224-.237-.439-.475-.642-.71a17.28,17.28,0,0,1-2.292-18.708A33.128,33.128,0,0,1,199.619,49a20.358,20.358,0,0,1,26.409-6.711l8.489,4.442q-2.869,3.8-5.171,7.5C225.05,48.212,219.887,46.788,216.839,46.525Zm88.173,74.061a1.921,1.921,0,0,1-.68-3.754,20.781,20.781,0,0,0,7.438-4.036c3.125-2.676,4.554-6.119,4.024-9.693-.65-4.39-4.211-8.406-9.526-10.743a23.48,23.48,0,0,0-5.917-1.6c1.66-2.947,3.045-5.569,4.031-7.485l9.188,4.806A17.415,17.415,0,0,1,322.693,101a16.226,16.226,0,0,1-4.76,14.154C314.718,118.264,310.372,120.09,305.012,120.586Z"/><path d="M31.146,76.739a10.133,10.133,0,0,0,.49,7.893L37.414,96.3a10.267,10.267,0,0,0,13.494,4.711l12-5.64,12.17,25.43-.615.2A12.146,12.146,0,0,0,65.6,134.822l.143.847-6.457,2.153a3.462,3.462,0,1,0,2.191,6.568l9.268-3.091a3.462,3.462,0,0,0,2.318-3.86l-.636-3.77a5.26,5.26,0,0,1,3.88-6c.06-.016.121-.033.18-.053l18.238-5.829a3.462,3.462,0,0,0-2.107-6.595l-10.883,3.479L67.668,89.282a3.464,3.464,0,0,0-4.6-1.639l-15.11,7.1a3.306,3.306,0,0,1-4.344-1.515L37.841,81.561a3.288,3.288,0,0,1,1.547-4.434l15.181-7.144a3.461,3.461,0,0,0,1.648-4.627L45.165,42.265a5.338,5.338,0,0,1,2.346-7.055l13.311-6.971a5.354,5.354,0,0,1,7.351,2.511L79.1,54.575a3.464,3.464,0,0,0,4.621,1.689l13.688-6.442a3.289,3.289,0,0,1,4.426,1.689l5.1,12.02a3.276,3.276,0,0,1-1.628,4.259L91.844,74.12A3.461,3.461,0,0,0,90.17,78.7L106.4,114.06c.02.045.051.082.073.125.017.068.021.136.043.2a3.463,3.463,0,0,0,4.351,2.244l17.16-5.486a1.9,1.9,0,0,1,2.2,1.243l3.169,9.4a3.466,3.466,0,0,0,3.526,2.348l17.562-1.254a1.894,1.894,0,0,1,2.022,1.729l.225,6.1-11.564-.722a3.462,3.462,0,1,0-.432,6.91l15.381.96h.033l13.656.718a1.892,1.892,0,0,1,1.793,1.89v4.777a3.46,3.46,0,0,0,3.138,3.446l16.173,1.516a1.886,1.886,0,0,1,1.716,1.885V157.4a3.461,3.461,0,0,0,3.432,3.462l7.978.067h.03a3.462,3.462,0,0,0,.028-6.924l-4.545-.037V152.09a8.779,8.779,0,0,0-7.993-8.777L182.52,142.09v-1.624a8.813,8.813,0,0,0-8.353-8.8l-10.494-.553-.252-6.811a8.815,8.815,0,0,0-9.431-8.323L139.1,117.039l-2.313-6.86a8.841,8.841,0,0,0-10.578-5.714c-.061.015-.121.032-.181.052l-14.3,4.57L97.893,78.927l10.364-4.87a10.181,10.181,0,0,0,5.056-13.232l-5.1-12.019a10.209,10.209,0,0,0-13.746-5.248L83.938,48.511,74.465,27.863a12.278,12.278,0,0,0-16.856-5.758L44.3,29.077a12.235,12.235,0,0,0-5.378,16.177L48.468,65.2,36.44,70.863A10.13,10.13,0,0,0,31.146,76.739Z"/><path d="M17,324.385H39.29a10.207,10.207,0,0,0,10,8.233H79.536a10.021,10.021,0,0,0,10.01-10.009v-1.8A10.024,10.024,0,0,0,79.523,310.8l-12.644.048a3.462,3.462,0,0,0,.012,6.923h.014l12.631-.047a3.09,3.09,0,0,1,3.086,3.087v1.8a3.089,3.089,0,0,1-3.086,3.086H49.291a3.268,3.268,0,0,1-3.265-3.265v-8.125a3.462,3.462,0,0,0-6.924,0v3.157H17a3.911,3.911,0,0,1-3.907-3.907v-3.03a3.915,3.915,0,0,1,3.895-3.908l8.447-.025h6.575a3.462,3.462,0,0,0,0-6.923H28.844l-.036-2.944a5.212,5.212,0,0,1,5.211-5.274H62.207a4.184,4.184,0,0,1,0,8.367H44.848a3.462,3.462,0,1,0,0,6.924H62.207a11.093,11.093,0,0,0,10.282-15.291h.21a10.681,10.681,0,0,0,10.668-10.668v-4.629a3.462,3.462,0,0,0-6.923,0v4.629a3.749,3.749,0,0,1-3.745,3.745H41.834V277.28a4.133,4.133,0,0,1,4.128-4.129h7.591a3.461,3.461,0,0,0,3.461-3.461v-8.645a3.71,3.71,0,0,1,3.707-3.706H85.178a3.71,3.71,0,0,1,3.707,3.706v5.483a3.461,3.461,0,0,0,3.461,3.461H108.7l19.331,19.332a8.9,8.9,0,0,0,12.571,0l4.637-4.637c.047-.047.087-.1.132-.146H147.8a6.877,6.877,0,0,1,6.688,5.324h-5.043a12.359,12.359,0,0,0-12.282,12l-.117,5.052h-.361A12.832,12.832,0,0,0,125.29,325.7H97.2a3.462,3.462,0,1,0,0,6.923h63.932a9.426,9.426,0,0,0,9.417-9.416v-.648a3.462,3.462,0,1,0-6.923,0v.648a2.5,2.5,0,0,1-2.494,2.493H136.681a5.928,5.928,0,1,1,0-11.855h3.744a3.463,3.463,0,0,0,3.461-3.383l.194-8.434a5.394,5.394,0,0,1,5.361-5.239h16.428a5.373,5.373,0,0,1,5.35,5.019l.213,3.308H159.043a3.462,3.462,0,0,0,0,6.924h33.734a6.73,6.73,0,0,1,6.722,6.723v1.3a5.639,5.639,0,0,1-5.633,5.633H180.5a3.462,3.462,0,0,0,0,6.923h13.367a12.567,12.567,0,0,0,11.765-8.209,23.272,23.272,0,0,0,25.566-14.17h41.857a16.7,16.7,0,0,0,16.556-14.114l4.5-28.049a3.462,3.462,0,1,0-6.836-1.1l-4.5,28.048a9.8,9.8,0,0,1-9.72,8.287h-40.2c.051-.627.084-1.259.084-1.9a23.339,23.339,0,1,0-46.383,3.693h-8.18l-.242-3.752a12.312,12.312,0,0,0-12.26-11.5H161.5a13.811,13.811,0,0,0-13.691-12.247,8.816,8.816,0,0,0-2.565-5.5l-2.265-2.265h27.029a3.462,3.462,0,0,0,0-6.923H136.053L122.534,249.4a8.9,8.9,0,0,0-12.571,0l-4.637,4.637a8.879,8.879,0,0,0-2.17,9.024H95.808v-2.021a10.642,10.642,0,0,0-10.63-10.629H60.721a10.641,10.641,0,0,0-10.63,10.629v5.183H45.962A11.065,11.065,0,0,0,34.91,277.28v7.248h-.891a12.135,12.135,0,0,0-12.134,12.28l.035,2.871-4.954.015a10.85,10.85,0,0,0-10.8,10.831v3.03A10.843,10.843,0,0,0,17,324.385ZM209.6,285a16.416,16.416,0,1,1-3.236,32.5,13.653,13.653,0,0,0-12.745-12.349A16.4,16.4,0,0,1,209.6,285Zm-99.374-26.064,4.637-4.637a1.966,1.966,0,0,1,2.78,0l22.708,22.708a1.966,1.966,0,0,1,0,2.78l-4.637,4.636a1.97,1.97,0,0,1-2.78,0l-22.707-22.708a1.964,1.964,0,0,1,0-2.779Z"/><path d="M127.568,298.764a10.72,10.72,0,0,0-10.709-10.708H90.04a10.708,10.708,0,0,0,0,21.416h26.819A10.721,10.721,0,0,0,127.568,298.764Zm-41.313,0a3.789,3.789,0,0,1,3.785-3.785h26.819a3.785,3.785,0,1,1,0,7.57H90.04A3.789,3.789,0,0,1,86.255,298.764Z"/><path d="M315.071,202.148a14.821,14.821,0,0,0-1.22-20.925c-.169-.151-.35-.281-.524-.423a15.53,15.53,0,0,0,1.41-1.345,14.625,14.625,0,0,0,3.869-10.771A14.811,14.811,0,0,0,297,156.387l-34.58-29.467a3.462,3.462,0,1,0-4.491,5.27l33.788,28.792a14.717,14.717,0,0,0-2.707,9.428,15.034,15.034,0,0,0,4.662,10.181c.2.185.408.35.614.522a15.223,15.223,0,0,0-1.362,1.328,14.729,14.729,0,0,0-3.724,10.717,14.924,14.924,0,0,0,2.724,7.827,14.8,14.8,0,0,0-8.393,13.609H265.247a3.462,3.462,0,1,0,0,6.924h16.6a14.828,14.828,0,0,0-8.221,14.149,15.4,15.4,0,0,0,.393,2.644c-.017,0-.035,0-.052,0a14.792,14.792,0,0,0-13.906,13.719,14.812,14.812,0,0,0-13.538,3.278,14.795,14.795,0,0,0-12.606-8.028,14.9,14.9,0,0,0,.318-3.471,14.442,14.442,0,0,0-4.367-10.091,14.8,14.8,0,0,0,1.173-23.067c-.328-.292-.67-.562-1.019-.822.316-.3.625-.606.917-.934a14.822,14.822,0,0,0-1.22-20.926c-.328-.292-.671-.562-1.019-.822.316-.3.625-.606.917-.934a14.865,14.865,0,0,0,2.434-3.743h51.019a3.462,3.462,0,1,0,0-6.923H233.347c0-.017,0-.033,0-.05a14.818,14.818,0,0,0-29.59.05h-8.8a12.137,12.137,0,0,0-10.941-6.805h-27.68a12.131,12.131,0,0,0-10.94,6.805H38.932v-1.6a4.572,4.572,0,0,1,4.036-4.539l8.232-.969A3.46,3.46,0,0,0,54.257,165v-2.026a4.592,4.592,0,0,1,4.218-4.557l16.5-1.268a3.461,3.461,0,0,0,3.2-3.451v-3.535a5.473,5.473,0,0,1,5.007-5.479l14.551-1.313a4.31,4.31,0,0,1,4.687,3.977l.179,2.437-2.274.536a11.067,11.067,0,0,0-8.357,12.35l.171,1.137a3.461,3.461,0,0,0,3.418,2.947,3.508,3.508,0,0,0,.519-.039,3.462,3.462,0,0,0,2.909-3.938l-.171-1.138a4.105,4.105,0,0,1,3.1-4.581l5.148-1.214,20.314-4.79a5.538,5.538,0,0,1,5.648,4.72l.374,2.121-4.978,1.266a9.144,9.144,0,0,0-6.808,10.168,3.462,3.462,0,0,0,3.423,2.973,3.422,3.422,0,0,0,.492-.035,3.462,3.462,0,0,0,2.939-3.916,2.232,2.232,0,0,1,1.661-2.481l8.09-2.058,18.081-4.6c.066-.016.132-.036.2-.056a2.645,2.645,0,0,1,2.112.065,3.055,3.055,0,0,1,1.339,1.985,3.462,3.462,0,0,0,6.706-1.723,9.867,9.867,0,0,0-4.692-6.319,9.508,9.508,0,0,0-7.459-.639l-14.375,3.658-.271-1.54a12.476,12.476,0,0,0-13.257-10.476,3.415,3.415,0,0,0-.522.082l-16.653,3.926-.1-1.335A11.236,11.236,0,0,0,97.1,136.474l-14.552,1.313a12.365,12.365,0,0,0-11.308,12.375v.329l-13.3,1.023a11.555,11.555,0,0,0-10.561,10.4l-5.225.615a11.5,11.5,0,0,0-10.149,11.414v5.065c0,.108.022.21.032.315.007.078,0,.155.011.232l10.764,67.159a3.462,3.462,0,0,0,6.837-1.1l-3.863-24.1h64.569a3.462,3.462,0,0,0,0-6.924H44.68L39.531,182.47H144.193l2.162,25.054a15.344,15.344,0,0,0,2.428,7.07H131.461a3.462,3.462,0,0,0,0,6.924h47.278a15.222,15.222,0,0,0,15.253-13.994l2.162-25.054h8.9a14.86,14.86,0,0,0,4.667,5.775c-.319.3-.631.612-.926.943a14.825,14.825,0,0,0,1.22,20.927c.328.292.668.565,1.016.825-.314.3-.622.6-.913.931a14.79,14.79,0,0,0,.659,20.376,14.775,14.775,0,0,0-6.17,12.442,14.79,14.79,0,0,0,14.249,14.356,14.792,14.792,0,0,0,14.487,17.869c.289,0,.58-.008.872-.026a14.7,14.7,0,0,0,8.982-3.727,14.841,14.841,0,0,0,13.158,8.047c.288,0,.579-.009.87-.025a14.8,14.8,0,0,0,13.906-13.7,15.2,15.2,0,0,0,3.638.45q.462,0,.927-.027a14.821,14.821,0,0,0,13.933-15.66,14.974,14.974,0,0,0-.4-2.643h.06a14.808,14.808,0,0,0,12.65-20.873,14.809,14.809,0,0,0,8.412-23.04A14.772,14.772,0,0,0,315.071,202.148ZM303.35,161.662c.155-.009.31-.014.464-.014a7.908,7.908,0,0,1,7.88,7.439,7.756,7.756,0,0,1-2.074,5.705,8.171,8.171,0,0,1-5.585,2.689,7.367,7.367,0,0,1-5.631-1.944,8.149,8.149,0,0,1-2.481-5.531,7.9,7.9,0,0,1,7.427-8.344Zm-88.729,43.28a7.9,7.9,0,0,1,4.79-13.785c.157-.01.313-.014.47-.014a7.9,7.9,0,1,1-5.26,13.8Zm6.582,8.884a7.9,7.9,0,0,1,.449,15.784c-.236.015-.472.016-.707.009-.132-.015-.269-.015-.4-.028a7.9,7.9,0,0,1,.191-15.752C220.89,213.829,221.048,213.826,221.2,213.826Zm-8.555-42.717a7.852,7.852,0,0,1,5.442-2.635c.157-.01.313-.014.47-.014a7.9,7.9,0,0,1,.448,15.785,7.929,7.929,0,0,1-8.344-7.426A7.849,7.849,0,0,1,212.648,171.109ZM189.3,181.422l-2.2,25.507a8.336,8.336,0,0,1-8.354,7.665H161.607a8.339,8.339,0,0,1-8.355-7.665l-2.2-25.507a5.3,5.3,0,0,1,5.281-5.756h27.68a5.3,5.3,0,0,1,5.282,5.756Zm22.234,63.062a7.982,7.982,0,0,1,2.345-5.823,7.3,7.3,0,0,1,5.188-2.228c.058,0,.116,0,.175,0,.135,0,.264.018.4.026.174.018.35.029.525.041a7.686,7.686,0,0,1,7.161,7.512,7.872,7.872,0,0,1-2.443,5.932,14.885,14.885,0,0,0-1.255.982,7.889,7.889,0,0,1-12.093-6.444Zm27.726,22.858a7.9,7.9,0,1,1-11.8-10.5c.125-.14.258-.268.39-.4a14.819,14.819,0,0,0,1.406-1.1,7.847,7.847,0,0,1,3.646-1.134c.156-.01.313-.014.469-.014a7.9,7.9,0,0,1,5.89,13.15Zm23.01,4.294a7.9,7.9,0,1,1-6.36-13.136c.157-.01.314-.013.469-.013a7.841,7.841,0,0,1,6.194,3.016c.168.249.338.5.521.734a7.905,7.905,0,0,1-.824,9.4Zm18.471-13.276a8.024,8.024,0,0,1-11.232.675,7.579,7.579,0,0,1-.888-.966c-.161-.238-.318-.48-.493-.708a8.143,8.143,0,0,1-1.173-3.793,7.9,7.9,0,0,1,7.425-8.345c.157-.009.313-.013.47-.013a7.9,7.9,0,0,1,7.875,7.439h0A7.853,7.853,0,0,1,280.736,258.36Zm13.592-18.305a7.848,7.848,0,0,1-5.44,2.635,7.713,7.713,0,0,1-8.345-7.427,7.895,7.895,0,0,1,7.425-8.344c.157-.01.313-.014.47-.014a7.854,7.854,0,0,1,2.761.5q.6.324,1.229.591a7.882,7.882,0,0,1,3.884,6.348h0A7.844,7.844,0,0,1,294.328,240.055Zm4.466-17.815a8.252,8.252,0,0,1-3.445-.53c-.377-.2-.759-.385-1.151-.551a7.425,7.425,0,0,1-1.194-.878,7.95,7.95,0,0,1,4.872-13.811c.157-.009.314-.013.47-.013a7.9,7.9,0,0,1,.448,15.783Zm11.1-24.694a7.848,7.848,0,0,1-5.44,2.635,7.721,7.721,0,0,1-8.346-7.427,7.9,7.9,0,0,1,7.359-8.337c.017,0,.034,0,.052,0,.2,0,.4-.01.6-.018a7.9,7.9,0,0,1,5.772,13.144Z"/><path d="M252,96.123a9.291,9.291,0,0,0,4.228,1c4.413,0,8.964-3,11.519-8.041h0c3.393-6.7,1.794-14.105-3.641-16.858a10.073,10.073,0,0,0-9.091.216,15.249,15.249,0,0,0-6.656,6.82C244.964,85.963,246.562,93.369,252,96.123Zm2.535-13.731a8.432,8.432,0,0,1,3.561-3.748,4.263,4.263,0,0,1,1.821-.481,2.316,2.316,0,0,1,1.06.24c1.663.844,2.317,4.154.594,7.555s-4.779,4.832-6.442,3.989S252.81,85.794,254.534,82.392Z"/><path d="M12.4,124.485a3.462,3.462,0,0,0,1.223,6.5c.168.019,16.9,2.166,22.739,21.578a3.462,3.462,0,0,0,6.7-1.728c-.023-.107-2.244-10.818,1.785-20.111a3.461,3.461,0,0,0-6.351-2.755,35.9,35.9,0,0,0-2.5,8.91,35.374,35.374,0,0,0-14.621-10.85c4.213-4.846,6.11-11.39,6.924-17.116,9.7,12.795,21.362,13.25,21.964,13.265a3.434,3.434,0,0,0,3.526-3.348,3.475,3.475,0,0,0-3.331-3.573c-.564-.023-13.9-.8-22.038-20.056A3.462,3.462,0,0,0,21.781,96.9C21.8,97.109,23.635,118.536,12.4,124.485Z"/><path d="M147.4,74.292a3.459,3.459,0,0,0,3.445,3.147c.058,0,.115,0,.173,0a3.465,3.465,0,0,0,3.292-3.49c0-.2,0-20.52,14.932-26.808a3.469,3.469,0,0,0-.538-6.557c-.548-.136-13.456-3.574-17.557-24.076a3.462,3.462,0,0,0-6.838.328c-.022.214-2.534,21.571-14.739,25.141a3.462,3.462,0,0,0-.108,6.611C129.62,48.637,145.575,54.1,147.4,74.292Zm.873-44.38a34.254,34.254,0,0,0,12.2,14.349,31.694,31.694,0,0,0-10.3,14.561,35.4,35.4,0,0,0-12.126-13.537C143.148,41.386,146.322,35.358,148.27,29.912Z"/><path d="M333.828,38.827a3.483,3.483,0,0,0-2.225-3.4c-.5-.193-12.28-4.971-13.738-24.838a3.461,3.461,0,0,0-6.826-.522c-.046.2-4.941,20.1-16.869,22.035a3.462,3.462,0,1,0,1.1,6.835c8.89-1.438,14.634-8.826,18.1-15.562a32.936,32.936,0,0,0,9.673,14.689,30.435,30.435,0,0,0-11.253,12.3,34.206,34.206,0,0,0-4.685-8.545,3.461,3.461,0,1,0-5.54,4.151c3.964,5.29,5.846,11.717,5.594,19.1a3.458,3.458,0,0,0,3.2,3.566c.088.007.175.01.262.01a3.465,3.465,0,0,0,3.436-3.065c.023-.193,2.427-19.4,17.264-23.584A3.454,3.454,0,0,0,333.828,38.827Z"/><path d="M247.855,214.594a3.462,3.462,0,0,0,0,6.924h2.183a3.462,3.462,0,0,0,0-6.924Z"/><path d="M192.777,262.924a3.462,3.462,0,1,0,0,6.923h4.158a3.462,3.462,0,0,0,0-6.923Z"/><path d="M170.173,187.889a3.462,3.462,0,0,0-3.462,3.462v6.13a3.462,3.462,0,0,0,6.924,0v-6.13A3.462,3.462,0,0,0,170.173,187.889Z"/></svg>