<?xml version="1.0" ?><svg id="outline" viewBox="0 0 340 340" xmlns="http://www.w3.org/2000/svg"><title/><path d="M328,203.977a368.847,368.847,0,0,0-.266-37.725c-.22-5.1-.447-10.379-.581-15.968a3.462,3.462,0,0,0-6.922.166c.136,5.655.365,10.965.586,16.1.491,11.379.956,22.157.362,35.17l-16.689,9.433a3.461,3.461,0,0,0-.256,5.867l11.127,7.641a13.178,13.178,0,0,1,5.72,10.867v87.328H143.31a11.2,11.2,0,0,1-8.074-3.6c-5.344-5.675-11.886-8.674-18.917-8.674a25.053,25.053,0,0,0-19.494,8.572,11.121,11.121,0,0,1-8.4,3.7H14.476v-103.3a35.626,35.626,0,0,1,2.9-14.563c4.546-10.226,2.054-21.236-2.9-27.471V133.765a13.977,13.977,0,0,1,5.47-11.051L74.695,80.959a3.462,3.462,0,1,0-4.2-5.506l-54.75,41.756a20.938,20.938,0,0,0-8.195,16.556V178.8a3.465,3.465,0,0,0,.924,2.355c3.239,3.49,6.6,11.97,2.569,21.027a42.486,42.486,0,0,0-3.493,17.375V326.318a3.462,3.462,0,0,0,3.461,3.462H88.422a18.039,18.039,0,0,0,13.611-6.066,18.314,18.314,0,0,1,14.286-6.209c5.148,0,9.817,2.186,13.877,6.5a18.15,18.15,0,0,0,13.114,5.777H324.545a3.462,3.462,0,0,0,3.461-3.462v-90.79a20.1,20.1,0,0,0-8.723-16.574l-6.557-4.5,13.523-7.642A3.463,3.463,0,0,0,328,203.977Z"/><path d="M180.114,69.181a3.462,3.462,0,0,0-3.462-3.462H101.969A19.4,19.4,0,0,0,82.59,85.1v32.259a8.32,8.32,0,0,1-8.31,8.311H32.769a3.462,3.462,0,1,0,0,6.923H74.28a15.251,15.251,0,0,0,15.234-15.234V85.1a12.468,12.468,0,0,1,12.455-12.454h74.683A3.462,3.462,0,0,0,180.114,69.181Z"/><path d="M184.978,134.152a3.465,3.465,0,0,0-4.145-2.6c-18.4,4.2-33.993,12.377-46.343,24.315a83.971,83.971,0,0,1-25.236,16.411c-11.891,5.141-26.166,18.275-26.663,51.634-.079,1.842-.94,28.807,14.848,46.136,7.9,8.672,18.552,13.374,31.564,13.968.229.017,1.411.095,3.288.095,8.325,0,30.3-1.544,43.288-16.869,13.49-15.917,27.642-26.893,52.859-28.724a47.465,47.465,0,0,0,39.828-27.374c.127-.278.253-.557.379-.841a24.8,24.8,0,0,0,.448-18.8,17.955,17.955,0,0,1-1.176-6.833,53.853,53.853,0,0,0-8.081-29.534,3.462,3.462,0,1,0-5.842,3.715,46.874,46.874,0,0,1,7,25.681,24.835,24.835,0,0,0,1.635,9.457,17.836,17.836,0,0,1-.318,13.518q-.169.381-.34.754a40.542,40.542,0,0,1-34.036,23.356c-29.251,2.123-44.989,16.228-57.639,31.154-13.619,16.071-40.524,14.367-40.885,14.338-17.4-.8-29.376-9.75-35.61-26.615a75.948,75.948,0,0,1-4.293-26.312c0-.039,0-.076,0-.114.427-29.7,12.464-41.1,22.487-45.431a90.869,90.869,0,0,0,27.3-17.788c11.428-11.047,25.919-18.632,43.071-22.543A3.462,3.462,0,0,0,184.978,134.152Z"/><path d="M289.469,14.989c-2.581,3.174-6.552,8.29-10.805,14.635a11.665,11.665,0,0,0-1.658,9.215L250.034,74.121,221.345,53.089c-.864-.647-14.539-10.582-25.539-1.2-6.037,5.149-7.273,10.66-7.246,14.379a15.655,15.655,0,0,0,12.2,15.1c6.8,1.481,12.686-1.882,15.767-4.2a63.374,63.374,0,0,1,12.918,12.551c-1.227,4.923-4.5,12.431-13.032,21.381-2.583,2.71-5.081,5.14-7.5,7.489C194.992,132.129,184,142.825,182.973,183a3.462,3.462,0,0,0,3.46,3.55H226.56a3.462,3.462,0,0,0,0-6.924h-6.307c1.193-6.214,5.245-18.966,18.806-25.941,14.319-7.364,25.788-17.664,32.571-29.189l13.306,6.209a91.06,91.06,0,0,1,11.16,6.27c5.36,3.487,10.5,5.232,15.1,5.231a15.567,15.567,0,0,0,11.667-5.035c8.226-8.726,5.947-16.875,3.856-20.955a16.034,16.034,0,0,0-9.534-8.044c-6.487-1.962-11.775,1.076-14.93,4.232L282.4,97.848l27.987-34.764c.042,0,.084,0,.126,0a11.778,11.778,0,0,0,9.4-4.675l9.917-13.172a12.847,12.847,0,0,0-1.072-16.792,79.442,79.442,0,0,0-24.167-17.159A12.868,12.868,0,0,0,289.469,14.989ZM213.74,123.551c2.462-2.395,5.007-4.871,7.68-7.676,7.108-7.457,11-14.173,13.117-19.506l7.835,10.239a33.526,33.526,0,0,0,2.821,3.226c-5.521,8.314-14.427,16.886-27.154,26.14-18.563,13.5-21.676,33.657-21.991,43.654h-6.036C191.442,145.241,200.4,136.526,213.74,123.551Zm22.153,23.979c-17.19,8.841-21.573,25.093-22.68,32.1H202.97c.315-10.114,3.486-26.671,19.141-38.055,13.111-9.533,22.447-18.5,28.455-27.335a33.606,33.606,0,0,0,4.367,2.468l10.389,4.848C261.173,128.37,252.549,138.964,235.893,147.53Zm67.607-27a3.486,3.486,0,0,0,2.287-1.553c.153-.24,3.805-5.866,9.4-4.176a9.071,9.071,0,0,1,5.376,4.574c2.237,4.364,1.317,8.754-2.732,13.049-5.036,5.342-12.545,2.269-17.955-1.251a97.958,97.958,0,0,0-12.006-6.74l-30-14a27.009,27.009,0,0,1-9.992-8.032L235.119,85.738a70.286,70.286,0,0,0-15.754-15.044,4.386,4.386,0,0,0-5.506-.325c-.063.046-5.589,5.546-11.629,4.232a8.679,8.679,0,0,1-6.746-8.383c-.024-3.266,1.6-6.314,4.816-9.06,6.883-5.872,16.494,1.173,16.9,1.479l.032.023,83.573,61.269A3.475,3.475,0,0,0,303.5,120.53ZM255.618,78.215l25.114-32.852,4.048,5.2a27.187,27.187,0,0,0,13.572,9.344l4.578,1.4L276.809,93.75ZM323.8,33.284a5.964,5.964,0,0,1,.5,7.794L314.378,54.25a4.822,4.822,0,0,1-5.253,1.708l-8.748-2.674a20.3,20.3,0,0,1-10.134-6.977L284.626,39.1a4.785,4.785,0,0,1-.211-5.615c4.106-6.126,7.936-11.062,10.425-14.123a5.932,5.932,0,0,1,6.957-1.729A72.454,72.454,0,0,1,323.8,33.284Z"/><path d="M153.338,233.3a3.461,3.461,0,0,0-1.014-2.447l-9.252-9.252a3.462,3.462,0,0,0-4.9,0l-5.8,5.8-5.8-5.8a3.562,3.562,0,0,0-4.895,0l-9.252,9.252a3.461,3.461,0,0,0,0,4.9l5.8,5.8-5.8,5.8a3.462,3.462,0,0,0,0,4.9l9.252,9.251a3.463,3.463,0,0,0,4.895,0l5.8-5.8,5.8,5.8a3.463,3.463,0,0,0,4.9,0l9.252-9.251a3.462,3.462,0,0,0,0-4.9l-5.8-5.8,5.8-5.8A3.463,3.463,0,0,0,153.338,233.3ZM139.177,244l5.8,5.8-4.355,4.355-5.8-5.8a3.461,3.461,0,0,0-4.9,0l-5.8,5.8-4.355-4.355,5.8-5.8a3.462,3.462,0,0,0,0-4.9l-5.8-5.8,4.355-4.356,5.8,5.8a3.463,3.463,0,0,0,4.9,0l5.8-5.8,4.355,4.356-5.8,5.8a3.462,3.462,0,0,0,0,4.9Z"/><path d="M233.1,274.127a12.751,12.751,0,0,0,3.164-9.862,12.979,12.979,0,0,0-5.28-9.112l-.186-.135a18.381,18.381,0,0,0-17.312-2.442,44.629,44.629,0,0,0-15.66,10.037h0a10.124,10.124,0,0,0-2.863,9,10,10,0,0,0,5.724,7.368,34.567,34.567,0,0,0,14.233,3.4A24.039,24.039,0,0,0,233.1,274.127Zm-31.322-3.733a3.164,3.164,0,0,1,.9-2.847h0a37.76,37.76,0,0,1,13.243-8.491,11.523,11.523,0,0,1,10.879,1.618l.1.076a6.056,6.056,0,0,1,2.471,4.255,5.738,5.738,0,0,1-1.436,4.5c-6,6.7-14.214,7.763-24.408,3.162A3.047,3.047,0,0,1,201.78,270.394Z"/><path d="M132.541,190.266a3.451,3.451,0,0,0,1.84-.532,18.887,18.887,0,0,1,6.171-2.451,3.462,3.462,0,1,0-1.4-6.78,25.912,25.912,0,0,0-8.454,3.37,3.462,3.462,0,0,0,1.846,6.393Z"/><path d="M157.044,193.121a3.462,3.462,0,1,0,5.807-3.771,18.809,18.809,0,0,0-3.649-4.241,21.659,21.659,0,0,0-3.273-2.247,3.461,3.461,0,1,0-3.38,6.041,14.745,14.745,0,0,1,2.225,1.529A12.123,12.123,0,0,1,157.044,193.121Z"/><path d="M125.076,195.281a3.462,3.462,0,0,0-4.185,2.541,29.565,29.565,0,0,0-.824,6.9,20.609,20.609,0,0,0,.1,2.171,3.454,3.454,0,0,0,3.433,3.062,3.541,3.541,0,0,0,.384-.02,3.468,3.468,0,0,0,3.063-3.814s-.055-.533-.055-1.4a22.516,22.516,0,0,1,.627-5.257A3.462,3.462,0,0,0,125.076,195.281Z"/><path d="M180.05,224.055a13.019,13.019,0,0,1-5.245-1.869,3.462,3.462,0,0,0-3.68,5.865,19.981,19.981,0,0,0,8.057,2.872l.826.1a3.409,3.409,0,0,0,.4.024,3.462,3.462,0,0,0,.394-6.9Z"/><path d="M207.83,213a3.458,3.458,0,0,0,4.16-2.581,55.579,55.579,0,0,0,1.243-8.336,3.462,3.462,0,1,0-6.9-.534,48.662,48.662,0,0,1-1.081,7.292A3.461,3.461,0,0,0,207.83,213Z"/><path d="M199.467,220.03a14.971,14.971,0,0,1-5.5,3.256,3.462,3.462,0,1,0,2.243,6.55,22.068,22.068,0,0,0,7.99-4.748,3.462,3.462,0,0,0-4.729-5.058Z"/><path d="M164.929,216.575a3.466,3.466,0,0,0,3.373-4.256,28.178,28.178,0,0,1-.691-6.446c0-.182,0-.364,0-.547a3.462,3.462,0,0,0-3.4-3.525h-.064a3.461,3.461,0,0,0-3.46,3.4c0,.237-.007.472-.006.69a35.168,35.168,0,0,0,.874,8.016A3.465,3.465,0,0,0,164.929,216.575Z"/><path d="M68.215,172.921a5.621,5.621,0,0,1-3.527-1.1,13.092,13.092,0,0,0-14.18,0,6.2,6.2,0,0,1-7.05,0,12.415,12.415,0,0,0-7.087-2.086,3.462,3.462,0,0,0,0,6.924,5.613,5.613,0,0,1,3.523,1.1,13.088,13.088,0,0,0,14.176,0,6.212,6.212,0,0,1,7.056,0,12.423,12.423,0,0,0,7.089,2.085,3.462,3.462,0,1,0,0-6.923Z"/><path d="M68.215,187.478a5.622,5.622,0,0,1-3.527-1.1,13.1,13.1,0,0,0-14.18,0,6.2,6.2,0,0,1-7.05,0,12.415,12.415,0,0,0-7.087-2.086,3.462,3.462,0,0,0,0,6.923,5.613,5.613,0,0,1,3.523,1.1,13.088,13.088,0,0,0,14.176,0,6.208,6.208,0,0,1,7.056,0,12.431,12.431,0,0,0,7.089,2.085,3.462,3.462,0,1,0,0-6.923Z"/><path d="M150.955,99.215a5.621,5.621,0,0,1-3.527-1.1,13.1,13.1,0,0,0-14.179,0,6.207,6.207,0,0,1-7.051,0,12.41,12.41,0,0,0-7.087-2.086,3.462,3.462,0,1,0,0,6.923,5.617,5.617,0,0,1,3.523,1.1,13.089,13.089,0,0,0,14.177,0,6.2,6.2,0,0,1,7.054,0,12.435,12.435,0,0,0,7.09,2.085,3.462,3.462,0,0,0,0-6.924Z"/><path d="M150.955,113.772a5.621,5.621,0,0,1-3.527-1.1,13.1,13.1,0,0,0-14.179,0,6.2,6.2,0,0,1-7.051,0,12.418,12.418,0,0,0-7.087-2.085,3.462,3.462,0,1,0,0,6.923,5.611,5.611,0,0,1,3.523,1.1,13.087,13.087,0,0,0,14.177,0,6.209,6.209,0,0,1,7.054,0,12.426,12.426,0,0,0,7.09,2.086,3.462,3.462,0,1,0,0-6.924Z"/><path d="M297.941,248.068a5.626,5.626,0,0,1-3.528-1.1,13.1,13.1,0,0,0-14.179,0,6.207,6.207,0,0,1-7.051,0,12.406,12.406,0,0,0-7.086-2.086,3.462,3.462,0,1,0,0,6.923,5.606,5.606,0,0,1,3.522,1.1,13.087,13.087,0,0,0,14.177,0,6.211,6.211,0,0,1,7.055,0,12.421,12.421,0,0,0,7.09,2.086,3.462,3.462,0,0,0,0-6.924Z"/><path d="M297.941,262.625a5.626,5.626,0,0,1-3.528-1.1,13.09,13.09,0,0,0-14.179,0,6.2,6.2,0,0,1-7.051,0,12.414,12.414,0,0,0-7.086-2.086,3.462,3.462,0,0,0,0,6.924,5.612,5.612,0,0,1,3.522,1.1,13.089,13.089,0,0,0,14.177,0,6.211,6.211,0,0,1,7.055,0,12.422,12.422,0,0,0,7.09,2.085,3.462,3.462,0,0,0,0-6.923Z"/><path d="M198.554,291.482a5.63,5.63,0,0,1-3.528-1.1,13.091,13.091,0,0,0-14.178,0,6.208,6.208,0,0,1-7.052,0,12.408,12.408,0,0,0-7.086-2.086,3.462,3.462,0,0,0,0,6.924,5.62,5.62,0,0,1,3.524,1.1,13.086,13.086,0,0,0,14.175,0,6.214,6.214,0,0,1,7.057,0,12.419,12.419,0,0,0,7.088,2.085,3.462,3.462,0,1,0,0-6.924Z"/><path d="M198.554,306.039a5.621,5.621,0,0,1-3.527-1.1,13.1,13.1,0,0,0-14.18,0,6.2,6.2,0,0,1-7.05,0,12.415,12.415,0,0,0-7.087-2.086,3.462,3.462,0,0,0,0,6.923,5.615,5.615,0,0,1,3.523,1.1,13.088,13.088,0,0,0,14.176,0,6.208,6.208,0,0,1,7.056,0,12.431,12.431,0,0,0,7.089,2.085,3.462,3.462,0,0,0,0-6.924Z"/><path d="M87.291,284.772a3.462,3.462,0,1,0,0-6.923H79.605a23.878,23.878,0,0,0-7.977-13.958,3.462,3.462,0,0,0-4.521,5.244,17.01,17.01,0,0,1,5.408,8.714H59.38v-27.97l1.565,1.711a3.462,3.462,0,0,0,5.108-4.675l-7.581-8.282a3.626,3.626,0,0,0-5.108,0l-7.58,8.282a3.462,3.462,0,0,0,5.107,4.675l1.565-1.71v8.433a23.97,23.97,0,0,0-15.214,8.631,3.461,3.461,0,1,0,5.37,4.369,17.079,17.079,0,0,1,9.844-5.967v12.5H24.545a3.462,3.462,0,0,0,0,6.923H32a24.057,24.057,0,0,0,8.213,15.586,3.462,3.462,0,0,0,4.52-5.244,17.119,17.119,0,0,1-5.726-10.342H52.456v27.912a3.462,3.462,0,0,0,6.924,0v-6.751a24.144,24.144,0,0,0,15.228-8.646,3.462,3.462,0,1,0-5.374-4.365A17.2,17.2,0,0,1,59.38,298.9V284.772Z"/><path d="M242.546,186.552a3.462,3.462,0,1,0,0-6.924h-1.7a3.462,3.462,0,0,0,0,6.924Z"/></svg>