<?xml version="1.0" ?><svg id="outline" viewBox="0 0 340 340" xmlns="http://www.w3.org/2000/svg"><title/><path d="M295.813,186.674l-7.459-1.028A128.409,128.409,0,0,0,179.578,80.358a39.892,39.892,0,1,0-35,0c-62.39,8.561-110.61,62.207-110.61,126.912A128.257,128.257,0,0,0,162.076,335.382c63.272,0,115.97-46.109,126.278-106.488l7.459-1.03a11.888,11.888,0,0,0,10.223-11.73V198.405A11.891,11.891,0,0,0,295.813,186.674ZM175.27,56.5a10.888,10.888,0,0,0-9.58-5.756h-7.228a10.886,10.886,0,0,0-9.579,5.756,17.825,17.825,0,1,1,26.387,0Zm-20.753,4.875a3.96,3.96,0,0,1,3.945-3.708h7.228a3.961,3.961,0,0,1,3.946,3.708l1.127,18.083c-2.872-.193-5.767-.3-8.687-.3s-5.815.108-8.686.3ZM129.107,44.51a32.969,32.969,0,1,1,48.234,29.2l-.578-9.287a24.748,24.748,0,1,0-29.373,0l-.579,9.287A33.136,33.136,0,0,1,129.107,44.51Zm32.969,283.949A121.189,121.189,0,1,1,283.265,207.27,121.326,121.326,0,0,1,162.076,328.459ZM299.112,216.134a4.937,4.937,0,0,1-4.246,4.872l-5.5.76a127.775,127.775,0,0,0,0-28.993l5.5.759a4.939,4.939,0,0,1,4.246,4.873Z"/><path d="M162.076,97.633A109.637,109.637,0,1,0,271.713,207.27,109.761,109.761,0,0,0,162.076,97.633Zm0,212.35A102.713,102.713,0,1,1,264.789,207.27,102.83,102.83,0,0,1,162.076,309.983Z"/><path d="M176.7,192.773l-71.252-46.939a3.462,3.462,0,0,0-4.8,4.807l26.49,39.315h0l20.516,31.809L218.706,268.7a3.462,3.462,0,0,0,4.806-4.805Zm-47.474-12.1L116.308,161.5l19.048,12.833A17.949,17.949,0,0,0,129.224,180.672Zm23.931,35.518-19.382-28.768c1.481-4.637,4.179-7.385,8.363-8.519L171,198.349l36.849,54.69Z"/><path d="M162.076,138.287a3.462,3.462,0,0,0,3.462-3.462V121.731a3.462,3.462,0,1,0-6.923,0v13.094A3.461,3.461,0,0,0,162.076,138.287Z"/><path d="M192.444,135.353a3.458,3.458,0,0,0,4.537-1.837l1.647-3.887a3.462,3.462,0,0,0-6.375-2.7l-1.646,3.887A3.461,3.461,0,0,0,192.444,135.353Z"/><path d="M131.709,279.187a3.463,3.463,0,0,0-4.538,1.837l-1.646,3.886a3.461,3.461,0,1,0,6.374,2.7l1.647-3.887A3.462,3.462,0,0,0,131.709,279.187Z"/><path d="M242.417,237.446l-3.886-1.645a3.461,3.461,0,1,0-2.7,6.374l3.886,1.646a3.462,3.462,0,1,0,2.7-6.375Z"/><path d="M81.735,177.093l3.887,1.646a3.461,3.461,0,1,0,2.7-6.375l-3.886-1.646a3.462,3.462,0,0,0-2.7,6.375Z"/><path d="M234.4,177.89a3.459,3.459,0,0,0,4.508,1.909l3.911-1.584a3.461,3.461,0,1,0-2.6-6.417l-3.912,1.584A3.462,3.462,0,0,0,234.4,177.89Z"/><path d="M85.242,234.74l-3.912,1.584a3.461,3.461,0,1,0,2.6,6.417l3.912-1.584a3.461,3.461,0,1,0-2.6-6.417Z"/><path d="M195.964,281.505a3.462,3.462,0,1,0-6.417,2.6l1.584,3.912a3.462,3.462,0,0,0,6.417-2.6Z"/><path d="M128.189,133.035a3.462,3.462,0,0,0,6.417-2.6l-1.585-3.911a3.462,3.462,0,1,0-6.417,2.6Z"/><path d="M162.076,276.252a3.462,3.462,0,0,0-3.461,3.462v13.094a3.462,3.462,0,1,0,6.923,0V279.714A3.463,3.463,0,0,0,162.076,276.252Z"/><path d="M231.058,207.27a3.462,3.462,0,0,0,3.462,3.461h13.094a3.462,3.462,0,1,0,0-6.923H234.52A3.462,3.462,0,0,0,231.058,207.27Z"/><path d="M89.632,203.808H76.538a3.462,3.462,0,1,0,0,6.923H89.632a3.462,3.462,0,1,0,0-6.923Z"/><path d="M220.114,144.337l-9.26,9.259a3.461,3.461,0,1,0,4.895,4.9l9.26-9.259a3.461,3.461,0,1,0-4.895-4.9Z"/><path d="M108.4,256.048l-9.259,9.259a3.461,3.461,0,1,0,4.895,4.895l9.259-9.259a3.461,3.461,0,1,0-4.895-4.895Z"/></svg>